<?xml version="1.0" encoding="utf-8"?>
<!-- Generator: Adobe Illustrator 25.2.3, SVG Export Plug-In . SVG Version: 6.00 Build 0)  -->
<svg version="1.1" id="Layer_1" xmlns="http://www.w3.org/2000/svg" xmlns:xlink="http://www.w3.org/1999/xlink" x="0px" y="0px"
	 viewBox="0 0 1437 163.1" style="enable-background:new 0 0 1437 163.1;" xml:space="preserve">
<style type="text/css">
	.st0{fill:#00FFFF;}
	.st1{opacity:0.9;}
	.st2{fill:#000EDC;}
	.st3{fill:#FFFFFF;}
	.st4{fill:#31FF3F;}
	.st5{fill:#FF00FF;}
	.st6{fill:#F91C0E;}
</style>
<path class="st0" d="M634.5,153.1c20.3-14.3,25.1-42.4,10.8-62.7c-14.3-20.3-42.4-25.1-62.7-10.8c-20.3,14.3-25.1,42.4-10.8,62.7
	C586.1,162.7,614.2,167.5,634.5,153.1z"/>
<path d="M582.9,138.3c-0.1-0.2-0.1-0.5,0.1-0.6c0.6-0.4,1.1-0.8,1.7-1.2c0.1-0.1,0.2-0.1,0.3,0c0.8,0.8,1.7,0.8,2.7,0.4
	c0.7-0.3,1.3-0.8,1.8-1.4c0.4-0.5,0.5-1,0.3-1.5c-0.2-0.5-0.5-0.7-1-0.8c-0.7-0.1-1.3,0.1-1.9,0.3c-1,0.4-2,0.8-3.1,1.1
	c-0.4,0.1-0.8,0.2-1.2,0.3c-1.2,0.1-2.1-0.4-2.8-1.2c-0.8-1-1.3-2.1-1-3.4c0.2-0.8,0.6-1.5,1.2-2.1c1-1,2.1-1.8,3.5-2.2
	c1.6-0.5,2.9,0,4.1,1.1c0.5,0.5,0.4,0.5-0.1,0.9c-0.3,0.2-0.5,0.4-0.8,0.6c-0.4,0.3-0.9,0.4-1.3,0.1c-0.9-0.5-1.8-0.3-2.6,0.2
	c-0.4,0.3-0.8,0.6-1.1,1c-0.4,0.5-0.4,1.2-0.1,1.7c0.2,0.3,0.5,0.5,0.9,0.5c0.6,0,1.1-0.2,1.7-0.4c1-0.4,2.1-0.8,3.1-1.1
	c0.5-0.2,1-0.3,1.5-0.3c1.4,0,2.4,0.7,3.1,1.9c1.1,1.9,0.7,3.7-0.9,5.2c-0.4,0.4-1.6,1.4-3,2c-1.6,0.8-3.3,0.6-4.7-0.6
	c-0.1-0.1-0.2-0.2-0.3-0.3C583,138.4,582.9,138.3,582.9,138.3z"/>
<path d="M619.4,117.1c-1.8,0.8-3.4,0.6-4.9-0.8c-1.2-1.1-2.1-2.4-2.4-4c-0.4-1.6,0.2-3,1.4-4c0.7-0.6,1.5-1.1,2.3-1.3
	c1.4-0.4,2.6,0,3.7,0.8c1.4,1.1,2.4,2.5,2.8,4.2c0.4,1.6-0.1,2.9-1.3,4C620.5,116.6,619.6,117.1,619.4,117.1z M615.3,113.2
	c0.5,0.7,0.9,1.2,1.5,1.6c0.7,0.5,1.5,0.5,2.2,0c0.7-0.5,0.9-1.4,0.6-2.3c-0.3-0.8-0.7-1.5-1.3-2.1c-0.4-0.4-0.8-0.8-1.3-0.9
	c-1.4-0.4-2.7,0.7-2.5,2.1C614.7,112.2,615,112.8,615.3,113.2z"/>
<path d="M603.3,121.1c-1.1-1.6-2.2-3.2-3.3-4.7c-0.5-0.7-0.3-1.5,0.4-2c1.1-0.8,2.3-1.6,3.4-2.4c1-0.7,2.1-1.1,3.3-1.2
	c1.2-0.1,2.3,0.4,3.2,1.1c1.6,1.3,2.8,2.9,3.4,4.9c0.7,2.1,0,4.3-1.7,5.7c-1.6,1.3-3.3,2.3-4.9,3.5c-0.2,0.1-0.2,0-0.3-0.1
	C605.5,124.3,604.4,122.7,603.3,121.1C603.3,121.1,603.3,121.1,603.3,121.1z M605.1,119c0.8,1.1,1.6,2.2,2.3,3.3
	c0.1,0.1,0.1,0.3,0.3,0.1c0.8-0.6,1.6-1.1,2.3-1.7c1-0.9,1.3-2.1,0.9-3.3c-0.5-1.3-1.3-2.5-2.4-3.4c-1.2-1-2.4-1-3.7-0.1
	c-0.7,0.5-1.3,0.9-2,1.4c-0.2,0.1-0.2,0.2-0.1,0.4C603.6,116.8,604.4,117.9,605.1,119z"/>
<path d="M602.1,120.9c0.5,0.8,1.1,1.5,1.6,2.3c0.4,0.6,0.7,1.2,0.9,1.8c0.2,0.7,0.1,1.3-0.2,1.9c-1,1.9-2.6,3-4.7,3.3
	c-1,0.1-1.8-0.3-2.6-0.9c-0.3-0.3-0.6-0.7-0.9-1.1c-1.1-1.6-2.3-3.2-3.4-4.8c-0.1-0.2-0.1-0.3,0.1-0.4c0.6-0.4,1.2-0.8,1.8-1.3
	c0.2-0.1,0.3-0.1,0.4,0.1c1.2,1.7,2.4,3.4,3.6,5.1c0.4,0.6,0.9,1,1.7,0.9c0.8-0.1,1.3-0.6,1.6-1.3c0.2-0.6,0.1-1.1-0.2-1.6
	c-1-1.4-2-2.9-3-4.3c-0.4-0.5-0.4-1.1-0.1-1.6c0.4-0.5,0.9-0.7,1.4-1.1c0.1-0.1,0.2,0.1,0.2,0.1C600.9,119.1,601.5,120,602.1,120.9z
	"/>
<path d="M630.6,100.7c0.6,0.8,1.2,1.7,1.8,2.5c0.4,0.6,1,1,1.8,0.8c0.8-0.2,1.3-0.7,1.6-1.5c0.1-0.5,0-0.9-0.3-1.3
	c-1-1.4-2-2.9-3-4.3c-0.4-0.6-0.4-1.2,0-1.7c0.4-0.4,0.9-0.6,1.3-1c0.1,0,0.1,0,0.2,0c0,0.1,0.1,0.1,0.1,0.2c1.2,1.7,2.3,3.3,3.5,5
	c0.3,0.4,0.5,0.8,0.6,1.2c0.5,1.2,0.3,2.3-0.4,3.3c-1.1,1.6-2.7,2.4-4.6,2.6c-0.9,0.1-1.6-0.4-2.2-1c-0.3-0.3-0.6-0.7-0.9-1
	c-1.1-1.6-2.3-3.2-3.4-4.8c-0.1-0.2-0.1-0.3,0.1-0.4c0.6-0.4,1.2-0.8,1.7-1.2c0.2-0.1,0.3-0.1,0.4,0.1
	C629.4,99,630,99.8,630.6,100.7z"/>
<path d="M627.8,102.3c-0.7,0.5-1.4,1-2.2,1.5c-0.1,0.1-0.2,0-0.3,0c-1.2-0.6-2.5,0.4-2.7,1.4c-0.1,0.6,0.1,1.1,0.3,1.6
	c0.4,0.7,0.8,1.4,1.5,2c1.4,1.3,2.9,0.5,3.5-0.6c0.1-0.2,0.1-0.4,0.2-0.6c0-0.4,0.2-0.7,0.6-0.9c0.5-0.3,0.9-0.6,1.4-1
	c0.2-0.1,0.2-0.1,0.3,0.1c0.6,1.6,0.1,3.4-1.2,4.6c-0.7,0.6-1.4,1.1-2.3,1.4c-1.6,0.4-3,0-4.1-1c-1.1-1-2-2.2-2.4-3.7
	c-0.5-1.8,0.2-3.5,1.7-4.6c0.8-0.6,1.6-1,2.6-1.2C625.7,101.1,626.8,101.6,627.8,102.3z"/>
<path d="M596.1,133.8c-0.9,0.5-1.6,0.4-2.3-0.4c-0.1-0.1-0.2-0.3-0.3-0.4c-2.1-3-4.2-6-6.3-8.9c-0.1-0.2-0.2-0.3,0.1-0.4
	c0.3-0.2,0.5-0.4,0.8-0.6c0.7-0.5,1.5-0.4,2,0.3c0.3,0.4,0.6,0.8,0.8,1.2c0.1,0.1,0.2,0.2,0.3,0.1c0.3-0.2,0.6-0.5,1-0.7
	c0.1,0,0.1-0.1,0.2,0c0.3,0.4,0.6,0.8,0.5,1.4c-0.1,0.4-0.3,0.6-0.6,0.8c-0.2,0.1-0.2,0.2-0.1,0.3c1.1,1.5,2.1,3,3.2,4.5
	c0.2,0.3,0.5,0.4,0.9,0.2c0.2-0.1,0.4-0.3,0.6-0.4c0.1-0.1,0.2-0.1,0.2,0c0.3,0.5,0.7,1,1,1.4c0,0.1,0.1,0.1,0,0.2
	c0,0.1-0.1,0.1-0.2,0.2C597.5,132.8,596.3,133.7,596.1,133.8z"/>
<g class="st1">
	<path class="st2" d="M45.5,163.1c24.9,0,45-20.1,45-45c0-24.9-20.1-45-45-45s-45,20.1-45,45C0.5,142.9,20.6,163.1,45.5,163.1z"/>
	<path class="st3" d="M19.1,111.5v1l-2.7,1.5l-2.7,1.5v3v3.1l0.2-0.1c0.1-0.1,0.9-0.5,1.8-1l1.6-0.9v-1c0-0.5,0-1,0-1
		c0,0-0.4,0.2-0.8,0.5c-0.5,0.3-0.8,0.5-0.9,0.5c0,0,0-0.3,0-1l0-1l1.7-0.9c0.9-0.5,1.7-1,1.8-1l0.1-0.1v3.1v3.1l-3.6,2
		c-2,1.1-3.5,2-3.5,2c0,0,0.4,0.2,0.9,0.5c0.9,0.5,0.9,0.5,1,0.4c0.1,0,1.7-0.9,3.6-2l3.4-2v-5.1v-5.1l-0.7-0.4
		c-0.4-0.2-0.8-0.4-0.9-0.5l-0.2-0.1V111.5z"/>
	<path class="st3" d="M51.4,112.1c0,0,0,2,0,4.5l0,4.4h0.8H53l0-2l0-2l0.1-0.3c0.2-0.5,0.6-0.7,1.2-0.7c0.6,0,0.9,0.2,1.1,0.7
		c0.1,0.2,0.1,0.2,0.1,2.3l0,2.1h0.8h0.8l0-2.3c0-2,0-2.3-0.1-2.6c-0.1-0.4-0.3-0.7-0.6-1.1c-0.5-0.5-0.9-0.7-1.7-0.7
		c-0.7,0-1.2,0.2-1.6,0.6l-0.2,0.2l0-1.6l0-1.6l-0.8,0C51.6,112.1,51.4,112.1,51.4,112.1z"/>
	<path class="st3" d="M27.3,114.6c-1.1,0.2-2,1.2-2.3,2.4c-0.1,0.3-0.1,0.5-0.1,1c0,0.5,0,0.7,0.2,1c0.2,0.5,0.4,0.8,0.7,1.2
		c0.5,0.6,1.2,0.9,2,0.9c0.8,0,1.4-0.2,1.8-0.7l0.3-0.3l0,0.6c0,0.6,0,0.6-0.2,0.9c-0.3,0.5-0.7,0.8-1.4,0.8c-0.6,0-1.1-0.2-1.4-0.6
		l-0.2-0.2l-0.6,0.4c-0.3,0.2-0.6,0.4-0.7,0.4c-0.1,0.1,0.3,0.5,0.6,0.8c0.3,0.3,0.7,0.5,1.2,0.6c0.5,0.2,1.4,0.2,1.9,0
		c0.9-0.2,1.6-0.7,2-1.3c0.1-0.1,0.2-0.3,0.2-0.5l0.1-0.4l0-3.4l0-3.4h-0.8h-0.8v0.4v0.4l-0.2-0.2c-0.3-0.3-0.6-0.5-0.9-0.6
		C28.4,114.5,27.7,114.5,27.3,114.6z M28.8,116.2c0.3,0.1,0.6,0.3,0.8,0.6c0.2,0.3,0.3,0.6,0.3,1.1c0,0.6-0.1,0.9-0.5,1.2
		c-0.4,0.4-0.7,0.5-1.2,0.5c-0.4,0-0.4,0-0.7-0.2c-0.4-0.2-0.6-0.4-0.8-0.8c-0.1-0.2-0.1-0.3-0.1-0.8c0-0.5,0-0.5,0.1-0.8
		c0.2-0.4,0.6-0.8,1-0.9C28,116.1,28.6,116.1,28.8,116.2z"/>
	<path class="st3" d="M35.3,114.6c-0.5,0.1-0.9,0.5-1.2,0.9l-0.1,0.2l0-0.5l0-0.5h-0.8h-0.8v3.1v3.1h0.8H34l0-1.7c0-2,0-2,0.4-2.4
		c0.3-0.3,0.6-0.4,1.1-0.5l0.3,0v-0.9v-0.9l-0.1,0C35.7,114.5,35.5,114.6,35.3,114.6z"/>
	<path class="st3" d="M38.7,114.6c-1.2,0.3-2.2,1.4-2.3,2.8c-0.2,1.4,0.5,2.8,1.7,3.4c1,0.5,2.3,0.4,3-0.4l0.2-0.2v0.4v0.4h0.8h0.8
		v-3.1v-3.1h-0.8h-0.8v0.4v0.4l-0.1-0.2c-0.2-0.2-0.6-0.5-1-0.6C39.8,114.5,39.1,114.5,38.7,114.6z M40.3,116.2c0.6,0.3,1,1,1,1.8
		c0,0.6-0.4,1.1-1,1.4c-0.3,0.1-0.3,0.1-0.7,0.1c-0.3,0-0.5,0-0.7-0.1c-0.4-0.1-0.7-0.4-0.8-0.8c-0.1-0.3-0.1-0.3-0.1-0.8
		c0-0.5,0-0.6,0.1-0.8c0.2-0.4,0.6-0.8,1.1-0.9c0.1,0,0.3,0,0.5,0C40,116.1,40.1,116.1,40.3,116.2z"/>
	<path class="st3" d="M46.8,114.6c-0.4,0.1-0.8,0.3-1.1,0.6l-0.2,0.2v-0.4v-0.4h-0.8h-0.8v4.4v4.4h0.8h0.8v-1.6v-1.6l0.2,0.2
		c0.5,0.5,1.1,0.7,1.9,0.6c0.8,0,1.3-0.3,1.9-0.9c0.4-0.4,0.6-0.7,0.8-1.2c0.1-0.3,0.1-0.5,0.2-1c0-0.5,0-0.7-0.1-1
		c-0.3-1.1-1-2-2-2.3C47.9,114.5,47.2,114.5,46.8,114.6z M47.8,116.2c0.3,0.2,0.6,0.4,0.8,0.8c0.1,0.2,0.1,0.4,0.2,0.7
		c0,0.4,0,0.5-0.1,0.7c-0.4,1.1-1.6,1.5-2.5,0.9c-0.3-0.2-0.4-0.4-0.6-0.7c-0.2-0.3-0.2-0.9-0.1-1.3c0.1-0.5,0.5-0.9,1-1.1
		C46.8,116,47.5,116.1,47.8,116.2z"/>
	<path class="st3" d="M60.8,114.6c-0.6,0.1-1.2,0.4-1.7,0.9c-1.4,1.3-1.3,3.6,0.2,4.8c0.6,0.5,1.3,0.7,2.1,0.7c1,0,1.7-0.3,2.3-0.8
		c0.2-0.2,0.6-0.7,0.6-0.8c0,0-0.2-0.1-0.3-0.2l-0.3-0.2l-0.1,0.2c-0.6,0.9-1.7,1.2-2.7,1c-0.8-0.2-1.5-0.9-1.8-1.6
		c-0.1-0.4-0.1-1,0-1.4c0.2-0.8,0.9-1.5,1.8-1.7c0.3-0.1,1-0.1,1.3,0c0.6,0.1,1.1,0.5,1.4,0.9l0.1,0.2l0.3-0.2l0.4-0.2l-0.1-0.2
		C63.6,114.9,62.1,114.3,60.8,114.6z"/>
	<path class="st3" d="M67.2,114.6c-0.4,0.1-0.9,0.4-1.2,0.8c-0.1,0.1-0.1,0.2-0.2,0.2c0,0,0-0.2,0-0.4v-0.4h-0.4H65v3.1v3.1h0.4h0.4
		l0-2c0-1.7,0-2,0.1-2.2c0.2-0.6,0.5-0.9,1-1.2c0.2-0.1,0.3-0.1,0.7-0.1c0.4,0,0.5,0,0.7,0.1c0.2,0.1,0.5,0.4,0.6,0.6
		c0.2,0.3,0.2,0.6,0.2,2.7v2h0.4h0.4l0-2c0-1.7,0-2,0.1-2.3c0.2-0.5,0.5-0.9,0.9-1.1c0.4-0.2,1-0.2,1.4,0c0.5,0.2,0.8,0.6,0.9,1.2
		c0,0.2,0,1.1,0,2.3v2h0.4h0.4v-2.1c0-2.3,0-2.5-0.3-3c-0.2-0.4-0.6-0.8-0.9-0.9c-0.6-0.3-1.5-0.4-2.2-0.1c-0.4,0.2-0.6,0.3-0.8,0.6
		l-0.2,0.3l-0.1-0.2c-0.2-0.3-0.5-0.6-0.8-0.7C68.3,114.5,67.7,114.5,67.2,114.6z"/>
	<path class="st3" d="M75.9,114.6c-0.6,0.1-1.2,0.6-1.4,1c-0.3,0.6-0.2,1.4,0.3,1.8c0.3,0.3,0.6,0.4,1.5,0.6
		c1.4,0.4,1.7,0.6,1.8,1.1c0.1,0.4-0.2,0.8-0.7,0.9c-0.6,0.2-1.3,0.2-1.9-0.1c-0.3-0.1-0.6-0.5-0.7-0.7c0-0.1,0-0.1-0.1-0.1
		c0,0-0.7,0.3-0.7,0.4c0,0.1,0.2,0.4,0.5,0.7c0.2,0.2,0.4,0.3,0.7,0.5c0.5,0.2,0.8,0.3,1.4,0.3c1.1,0,1.9-0.4,2.2-1.1
		c0.1-0.3,0.1-0.3,0.1-0.7c0-0.3,0-0.4-0.1-0.6c-0.1-0.3-0.4-0.6-0.8-0.8c-0.1-0.1-0.6-0.2-1.1-0.4c-1-0.3-1.5-0.5-1.7-0.8
		c-0.1-0.1-0.1-0.2-0.1-0.5c0-0.3,0-0.3,0.1-0.5c0.1-0.1,0.2-0.2,0.4-0.3c0.3-0.1,0.3-0.1,0.8-0.1c0.3,0,0.6,0,0.7,0.1
		c0.3,0.1,0.6,0.3,0.7,0.6c0.1,0.1,0.1,0.2,0.1,0.2c0,0,0.7-0.4,0.7-0.4c0-0.1-0.3-0.5-0.5-0.6C77.8,114.6,76.8,114.4,75.9,114.6z"
		/>
</g>
<path class="st4" d="M127.4,125.7c24.9,0,45-20.1,45-45c0-24.9-20.1-45-45-45s-45,20.1-45,45C82.4,105.5,102.6,125.7,127.4,125.7z"
	/>
<path d="M105.2,72.8c-0.5,0-1.2,0.1-1.7,0.1c-5.2,0.5-8.4,1.9-9.5,3.9c-0.4,0.8-0.5,1.6-0.2,2.5c0.4,1.7,1.9,3.6,4.2,5.3
	c0.7,0.5,1.4,0.9,2.5,1.6c2.4,1.3,3.9,2,5.3,2.2c0.4,0.1,1,0.1,1.4,0c1.7-0.2,3.2-1.3,4.8-3.7c0.3-0.4,0.3-0.4,0.5-1
	c0.8-1.6,1.3-3.2,1.5-4.7c0-0.4,0-1.3,0-1.7c-0.1-1-0.5-1.8-1-2.5c-0.2-0.2-0.6-0.6-0.8-0.8c-0.9-0.7-2.2-1.1-3.8-1.3
	c-0.7-0.1-0.9-0.1-2-0.1C105.9,72.8,105.3,72.8,105.2,72.8z M108.9,77c0.5,0.1,0.8,0.6,0.7,1c0,0.3-0.2,0.5-0.4,0.7
	c-0.2,0.1,0.1,0.1-5,0.1c-5.1,0-4.8,0-5-0.1c-0.3-0.2-0.5-0.6-0.4-0.9c0.1-0.4,0.3-0.7,0.7-0.8C99.5,76.9,108.7,76.9,108.9,77z
	 M106.2,79.7c0.2,0.1,0.3,0.2,0.4,0.4c0.1,0.2,0.1,0.2,0.1,0.4c0,0.2,0,0.2-0.1,0.4c-0.1,0.2-0.3,0.4-0.4,0.4l-0.2,0.1h-2.6h-2.6
	l-0.2-0.1c-0.4-0.2-0.6-0.5-0.5-1c0-0.3,0.3-0.6,0.6-0.7c0.1,0,0.2,0,2.7,0l2.5,0L106.2,79.7z M109,82.3c0.4,0.1,0.7,0.6,0.6,1
	c-0.1,0.4-0.4,0.7-0.7,0.8c-0.2,0-6.4,0-6.6,0c-0.3-0.1-0.5-0.2-0.7-0.5c-0.1-0.1-0.1-0.2-0.1-0.3c0-0.2,0-0.4,0.1-0.6
	c0.1-0.2,0.3-0.3,0.5-0.4l0.1,0l3.3,0C108.7,82.2,108.8,82.2,109,82.3z"/>
<path d="M120,75c-0.4,0-0.8,0.1-0.9,0.1l-0.3,0v1v1l-0.5,0l-0.5,0l0,0.8l0,0.8h0.5h0.5l0,1.8l0,1.8l0.1,0.2c0.2,0.7,0.7,1.3,1.4,1.6
	c0.4,0.1,0.6,0.2,1.1,0.2c0.4,0,0.4,0,0.6,0c0.2,0,0.6-0.2,0.6-0.3c0,0-0.4-1.4-0.4-1.4c0,0-0.1,0-0.2,0c-0.2,0-0.4,0-0.6,0
	c-0.3-0.1-0.5-0.3-0.5-0.7c0-0.1,0-0.8,0-1.6v-1.5h0.5h0.5l0-0.8l0-0.8l-0.5,0l-0.5,0V76V75l-0.1,0C120.7,75,120.4,75,120,75z"/>
<path d="M156.6,77c-0.8,0.1-1.5,0.4-2,0.9c-0.5,0.5-0.8,1-1,1.7c-0.1,0.4-0.1,0.6-0.1,1c0,0.4,0,0.6,0.1,1c0.2,0.6,0.5,1.2,1,1.7
	c0.7,0.7,1.5,1,2.5,1c0.8,0,1.5-0.2,2.1-0.6c0.3-0.2,0.8-0.7,0.9-1c0.4-0.7,0.6-1.5,0.6-2.3c-0.1-1-0.4-1.7-1.1-2.4
	c-0.6-0.5-1.2-0.9-2.1-0.9C157.3,77,156.9,77,156.6,77z M157.6,78.8c0.6,0.2,1.1,0.7,1.3,1.4c0,0.2,0,0.7,0,0.9
	c-0.1,0.6-0.6,1.1-1.1,1.3c-0.3,0.1-0.8,0.1-1.2,0c-0.5-0.1-0.9-0.5-1.1-1c-0.2-0.5-0.2-1.1,0-1.6c0.2-0.6,0.8-1,1.4-1.1
	C157,78.7,157.4,78.8,157.6,78.8z"/>
<path d="M124.7,77.2c-0.5,0.1-0.9,0.1-0.9,0.1l-0.1,0v3.5v3.5h1h1V82v-2.2l0.1-0.2c0.2-0.4,0.4-0.6,0.7-0.7c0.1-0.1,0.2-0.1,0.4-0.1
	c0.3,0,0.7,0.1,0.9,0.3c0,0,0.1,0.1,0.1,0c0,0,0.3-1.9,0.3-1.9c0,0-0.2,0-0.3,0c-0.8-0.1-1.4,0.1-2,0.6l-0.1,0.1v-0.4v-0.4l-0.1,0
	C125.6,77.1,125.2,77.1,124.7,77.2z"/>
<path d="M132.2,77.1c-0.4,0-0.8,0.2-1.2,0.3c-0.6,0.3-1.1,0.8-1.5,1.4c-0.2,0.3-0.3,0.7-0.4,1.2c0,0.2,0,1.1,0,1.3
	c0.1,0.8,0.4,1.4,1,1.9c0.5,0.5,1.1,0.8,1.9,0.9c0.5,0.1,1.3,0.1,1.8,0c0.8-0.1,1.3-0.4,1.7-0.8l0.1-0.1l-0.6-0.6l-0.6-0.6l-0.1,0.1
	c-0.5,0.3-1,0.5-1.6,0.5c-0.4,0-0.5,0-0.8-0.2c-0.4-0.2-0.6-0.5-0.7-1l0-0.1l2.5,0l2.5,0l0-0.6c0-0.8-0.1-1.2-0.2-1.6
	c-0.4-1-1.2-1.7-2.3-2C133.2,77.1,132.7,77.1,132.2,77.1z M132.9,78.7c0.7,0.1,1.2,0.6,1.2,1.1v0.1h-1.4h-1.4l0-0.1
	c0-0.3,0.1-0.5,0.3-0.7C132,78.8,132.4,78.7,132.9,78.7z"/>
<path d="M138.6,77.2c-0.5,0.1-0.9,0.1-0.9,0.1l-0.1,0v3.5v3.5h1h1v-2.3v-2.3l0.1-0.1c0.1-0.2,0.3-0.5,0.4-0.6c0.1,0,0.2-0.1,0.2-0.2
	c0.1-0.1,0.1-0.1,0.4-0.1c0.2,0,0.3,0,0.5,0.1c0.2,0.1,0.4,0.2,0.5,0.3c0.1,0.1,0.3,0.4,0.3,0.6c0,0.1,0,0.3,0,2.3l0,2.1h1h1l0-2.4
	c0-2.6,0-2.5-0.1-2.9c-0.2-0.7-0.8-1.3-1.4-1.6c-0.4-0.2-0.9-0.2-1.4-0.2c-0.6,0-1,0.2-1.4,0.5l-0.1,0.1l0-0.3l0-0.3l-0.1,0
	C139.5,77.1,139.1,77.1,138.6,77.2z"/>
<path d="M148.3,77.1c-0.4,0-0.9,0.2-1.2,0.3c-0.8,0.4-1.4,1.3-1.6,2.3c-0.1,0.5-0.1,1.2,0,1.7c0.2,1.2,0.8,2.1,1.7,2.5
	c0.7,0.3,1.7,0.3,2.4,0.1c0.3-0.1,0.8-0.4,0.9-0.5c0,0,0,0,0,0c0,0,0,0.6,0,0.8c-0.1,0.4-0.3,0.8-0.5,0.9c-0.3,0.2-0.7,0.3-1.2,0.3
	c-0.6,0-1.3-0.2-1.8-0.5l-0.2-0.1l-0.5,0.5l-0.5,0.5l0.1,0.1c0.1,0.1,0.4,0.4,0.6,0.5c0.6,0.4,1.4,0.6,2.2,0.6c0.3,0,0.9,0,1.2-0.1
	c0.6-0.1,1.1-0.4,1.6-0.9c0.6-0.6,0.9-1.3,1-2.2c0-0.2,0-1.3,0-3.5l0-3.2l-0.9-0.1c-0.5-0.1-0.9-0.1-1-0.1l-0.1,0v0.3v0.3l-0.1-0.1
	c-0.3-0.3-0.7-0.4-1.2-0.5C148.8,77.1,148.6,77.1,148.3,77.1z M149.3,78.8c0.6,0.2,1,0.5,1.2,1c0,0.1,0.1,0.2,0.1,0.8
	c0,0.5,0,0.7,0,0.8c-0.1,0.5-0.4,0.8-0.9,1c-0.3,0.1-0.5,0.1-0.7,0.1c-0.3,0-0.5-0.1-0.7-0.2c-0.2-0.1-0.5-0.4-0.7-0.6
	c-0.2-0.4-0.3-1-0.3-1.4c0.1-0.5,0.3-0.9,0.6-1.2C148.2,78.8,148.8,78.7,149.3,78.8z"/>
<path class="st2" d="M428.2,118.6c22.2,11.1,49.3,2.1,60.4-20.1c11.1-22.2,2.1-49.3-20.1-60.4C446.3,27,419.2,36,408.1,58.2
	C397,80.4,406,107.4,428.2,118.6z"/>
<path class="st3" d="M427.9,69.4c0-0.6-0.3-1.1-0.7-1.5c-0.1-0.1-0.1-0.1-0.2-0.2c0.1,0,0.2,0,0.3,0c0.6-0.1,1.1-0.3,1.5-0.8
	c0.6-0.7,0.7-1.5,0.3-2.4c-0.3-0.5-0.7-0.9-1.3-1.2c-2.5-1.2-4.9-2.5-7.4-3.7c-0.1-0.1-0.2,0-0.2,0.1c-0.2,0.6,0.1,1.3,0.7,1.6
	c0.8,0.4,1.5,0.8,2.3,1.2c0.1,0.1,0.2,0.1,0.1,0.3c-0.3,0.6-0.6,1.2-0.9,1.8c-0.1,0.2-0.2,0.2-0.3,0.1c-0.5-0.3-1.1-0.5-1.6-0.8
	c-0.1,0-0.1-0.1-0.2-0.1c-0.3,0.3-0.2,1.1,0.2,1.5c0.3,0.2,0.7,0.4,1,0.6c0.2,0.1,0.2,0.1,0.1,0.4c-0.5,1-1,2-1.5,3
	c-0.1,0.2-0.1,0.2,0.1,0.3c1.2,0.6,2.5,1.2,3.7,1.8c0.5,0.3,1.1,0.4,1.7,0.4C427,71.8,427.9,70.4,427.9,69.4z M424.6,63.3
	c0.1-0.1,0.2-0.2,0.3-0.1c0.3,0.2,0.7,0.3,1,0.5c0,0,0,0,0,0c0.4,0.2,0.9,0.5,1.3,0.7c0.2,0.1,0.4,0.3,0.5,0.6
	c0.3,0.7-0.2,1.6-1,1.6c-0.3,0-0.6-0.1-0.9-0.2c-0.7-0.3-1.3-0.6-2-1c-0.1-0.1-0.1-0.1-0.1-0.3C424,64.5,424.3,63.9,424.6,63.3z
	 M426.2,69.8c-0.3,0.4-0.7,0.5-1.1,0.4c-0.3-0.1-0.7-0.2-1-0.3c-0.3-0.1-0.6-0.3-0.8-0.4c-0.4-0.2-0.8-0.4-1.2-0.6
	c-0.1-0.1-0.2-0.1-0.1-0.3c0.3-0.6,0.6-1.2,0.9-1.9c0.1-0.2,0.2-0.2,0.3-0.1c0.8,0.4,1.6,0.8,2.4,1.3c0.3,0.2,0.6,0.4,0.7,0.7
	C426.6,69,426.5,69.4,426.2,69.8z"/>
<path class="st3" d="M449.1,83.6c-0.1,0.2-0.2,0.2-0.3,0.1c-0.3-0.2-0.6-0.3-0.9-0.4c-0.2-0.1-0.2-0.2-0.1-0.3c0.5-1,1-2,1.5-3
	c0.1-0.3,0.3-0.6,0.3-0.9c0.1-0.6-0.1-1.1-0.7-1.4c-0.5-0.3-1.2-0.3-1.6,0.1c-0.3,0.2-0.5,0.5-0.6,0.8c-0.5,1-1,2.1-1.6,3.1
	c-0.1,0.2-0.2,0.2-0.3,0.1c-0.3-0.2-0.6-0.3-1-0.5c-0.1-0.1-0.2-0.1-0.1-0.3c1.4-2.7,2.7-5.4,4.1-8.1c0.1-0.1,0.1-0.1,0.3-0.1
	c0.3,0.2,0.6,0.3,1,0.5c0.2,0.1,0.2,0.1,0.1,0.3c-0.5,0.9-0.9,1.9-1.4,2.8l-0.1,0.2c0,0,0,0,0,0.1c0.1,0,0.2-0.1,0.3-0.1
	c0.8-0.4,1.5-0.3,2.3,0.1c1.1,0.6,1.3,1.8,1,2.7c-0.1,0.2-0.1,0.4-0.2,0.6C450.3,81.2,449.7,82.4,449.1,83.6z"/>
<path class="st3" d="M461.6,86.1c0.7-1.7,0.1-3.6-1.8-4.5c-1.8-0.9-4-0.1-4.9,1.9c-0.7,1.7,0,3.8,2,4.6
	C458.9,88.8,460.8,88,461.6,86.1z M458.4,87c-1.1,0.1-2.1-0.8-2.2-1.9c-0.1-1,0.5-1.9,1.3-2.3c0.6-0.3,1.6-0.2,2.1,0.3
	c0.8,0.7,0.9,1.8,0.4,2.7C459.8,86.4,459.2,86.9,458.4,87z"/>
<path class="st3" d="M478.3,93.1c0.4-2.5-2.1-4.1-4.1-3.4c-1.4,0.5-2.1,1.5-2.5,2.8c-0.2,0.8-0.1,1.5,0.2,2.2
	c0.6,1.1,1.6,1.8,2.8,1.9c0.6,0.1,1.2,0,1.8-0.3c-0.1-0.3-0.2-0.6-0.3-0.9c-0.1-0.2-0.2-0.2-0.3-0.2c-0.7,0.2-1.3,0.1-2-0.3
	c-0.7-0.5-1-1.2-0.8-2c0.1-0.3,0.1-0.3,0.4-0.2c1.3,0.7,2.6,1.3,3.9,2c0.2,0.1,0.3,0.1,0.3-0.1C478,94.3,478.2,93.7,478.3,93.1z
	 M476.5,93.3c-0.4-0.2-0.9-0.4-1.3-0.7c-0.5-0.2-0.9-0.5-1.4-0.7c-0.1,0-0.2-0.1-0.1-0.2c0.4-0.6,1.1-1,1.8-0.9
	c0.8,0.1,1.4,0.8,1.4,1.6c0,0.3-0.1,0.5-0.1,0.8C476.8,93.4,476.7,93.4,476.5,93.3z"/>
<path class="st3" d="M434.3,72.2c0.1-0.3,0.3-0.6,0.4-1c0.2-0.8,0.1-1.6-0.5-2.3c-1-0.9-2.2-1.4-3.5-1.4c0,0-0.1,0.1-0.1,0.1
	c-0.1,0.4-0.1,0.7-0.2,1.1c0,0,0,0,0.1,0c0.1,0,0.2,0,0.3,0c0.7,0.1,1.3,0.3,1.9,0.7c0.7,0.5,0.8,1.1,0.4,1.9
	c-0.1,0.1-0.1,0.1-0.2,0c-0.7-0.6-1.5-1.1-2.3-1.3c-0.8-0.2-1.6,0-2.2,0.6c-0.5,0.7-0.8,1.4-0.4,2.2c0.4,1,1.8,1.8,2.9,1.5
	c0.2-0.1,0.5-0.1,0.7-0.2c0,0.1-0.1,0.2-0.1,0.3c-0.2,0.5-0.2,0.5,0.3,0.7l0.6,0.3c0.3,0.1,0.3,0.1,0.4-0.1
	C433.3,74.3,433.8,73.3,434.3,72.2z M431.3,73.6c-0.6,0.1-1.6-0.3-1.9-1c-0.2-0.4-0.1-0.7,0.1-1c0.2-0.3,0.6-0.5,1-0.4
	c0.3,0.1,0.6,0.2,0.9,0.3c0.3,0.3,0.7,0.5,1,0.8c0,0,0.1,0.2,0.1,0.2C432.3,73.1,431.9,73.5,431.3,73.6z"/>
<path class="st3" d="M443.6,79.9c-1.2,0.6-2.5,0.4-3.6-0.5c-1.3-1-1.6-2.6-1-4c0.7-1.7,2.2-2.5,3.7-2.3c1.4,0.2,2.7,1.2,3,2.6
	c-0.4,0.2-0.8,0.3-1.3,0.5c-0.1-0.3-0.2-0.5-0.4-0.8c-0.5-0.9-1.6-1.2-2.5-0.7c-1,0.5-1.5,1.6-1.3,2.7c0.2,0.9,1.1,1.6,2.1,1.5
	c0.2,0,0.5-0.1,0.7-0.1c0.1,0,0.2,0,0.2,0.1C443.3,79.2,443.5,79.5,443.6,79.9z"/>
<path class="st3" d="M470.6,93.4c-0.6,0.2-1.2,0.4-1.8,0.3c-1.4-0.2-2.5-1-3-2.4c-0.4-1.1-0.2-2.1,0.4-3c0.8-1.2,1.9-1.8,3.3-1.7
	c1.3,0.1,2.6,1,3,2.4c0,0,0,0.2-0.1,0.2c-0.4,0.2-0.8,0.3-1.2,0.5c-0.1-0.3-0.2-0.5-0.4-0.8c-0.5-1-2-1.3-2.8-0.6
	c-0.8,0.6-1.1,1.4-1,2.4c0.1,0.9,1.2,1.7,2.1,1.6c0.2,0,0.5-0.1,0.7-0.1c0.1,0,0.2,0,0.2,0.1C470.3,92.7,470.4,93,470.6,93.4z"/>
<path class="st3" d="M454.9,79.1c-0.1,0.1,0,0.2,0.1,0.3c0.4,0.2,0.8,0.4,1.2,0.6c0.1,0.1,0.2,0.1,0.1,0.3c-0.1,0.2-0.2,0.5-0.4,0.7
	c-0.1,0.2-0.2,0.2-0.3,0.1c-0.4-0.2-0.8-0.4-1.2-0.6c-0.1,0-0.1-0.1-0.2-0.1l-0.1,0.2c-0.7,1.5-1.5,3-2.2,4.5
	c-0.1,0.2-0.1,0.2-0.3,0.1c-0.3-0.2-0.6-0.3-0.9-0.5c-0.2-0.1-0.2-0.2-0.1-0.3c0.7-1.5,1.5-2.9,2.2-4.4c0.2-0.3,0.2-0.3-0.2-0.5
	c-0.4-0.2-0.4-0.2-0.2-0.7l0.3-0.7c0.2,0.1,0.4,0.2,0.6,0.3c0.1,0.1,0.2,0,0.3-0.1c0.2-0.4,0.4-0.7,0.7-1c0.5-0.6,1.3-0.8,2-0.4
	c0.4,0.2,0.8,0.5,1.2,0.7c0.1,0.1,0.1,0.2,0.1,0.3c-0.2,0.3-0.3,0.6-0.5,1c-0.1-0.1-0.2-0.2-0.4-0.3c-0.2-0.1-0.4-0.2-0.6-0.3
	c-0.3-0.1-0.6,0-0.9,0.3C455.1,78.7,455,78.9,454.9,79.1z"/>
<path class="st3" d="M437.8,72.4c-0.5,0.9-0.9,1.9-1.4,2.8c-0.1,0.2-0.2,0.5-0.1,0.7c0.1,0.3,0.4,0.5,0.7,0.6
	c0.2,0.1,0.4,0.1,0.6,0.1c-0.2,0.3-0.3,0.7-0.5,1c0,0-0.1,0.1-0.1,0.1c-0.7,0.1-1.9-0.5-2.2-1.1c-0.3-0.5-0.2-1,0-1.5
	c0.5-1.1,1.1-2.2,1.6-3.3c0.1-0.3,0.1-0.3-0.1-0.4c-0.5-0.3-0.5-0.3-0.3-0.8c0.1-0.2,0.2-0.3,0.2-0.5c0.1-0.1,0.1-0.2,0.3-0.1
	c0.1,0.1,0.3,0.1,0.4,0.2c0.1,0.1,0.2,0.1,0.3-0.1c0.2-0.4,0.4-0.9,0.6-1.3c0.1-0.1,0.1-0.2,0.3-0.1c0.3,0.2,0.6,0.3,1,0.5
	c0.1,0.1,0.2,0.1,0.1,0.3c-0.2,0.4-0.4,0.9-0.7,1.3c-0.1,0.1,0,0.2,0.1,0.3c0.4,0.2,0.8,0.4,1.2,0.6c0.1,0.1,0.2,0.1,0.1,0.3
	c-0.1,0.3-0.3,0.5-0.4,0.8c-0.1,0.1-0.1,0.2-0.3,0.1c-0.4-0.2-0.8-0.4-1.2-0.6C438,72.2,437.9,72.2,437.8,72.4z"/>
<path class="st3" d="M466.8,86.6c-0.1,0.1-0.1,0.1-0.2,0.1c-0.6-0.3-1.2-0.3-1.9,0c-0.5,0.2-0.8,0.6-1.1,1c-0.5,0.8-0.9,1.7-1.3,2.5
	c-0.1,0.2-0.2,0.2-0.3,0.1c-0.3-0.2-0.6-0.3-0.9-0.5c-0.2-0.1-0.2-0.2-0.1-0.3c0.7-1.4,1.4-2.9,2.1-4.3c0.2-0.5,0.5-0.9,0.7-1.4
	c0.1-0.2,0.1-0.2,0.3-0.1c0.3,0.2,0.6,0.3,1,0.5c0.2,0.1,0.2,0.2,0.1,0.3c-0.2,0.3-0.3,0.6-0.5,0.9c0,0,0,0.1-0.1,0.2
	c0.3-0.2,0.5-0.3,0.8-0.5c0.6-0.3,1.2-0.3,1.8,0c0.1,0.1,0.2,0.1,0.1,0.2C467.1,85.9,466.9,86.2,466.8,86.6z"/>
<path class="st4" d="M1264.3,161.3c24.8,0,45-20.1,45-45c0-24.9-20.2-45-45-45s-45,20.1-45,45
	C1219.3,141.2,1239.4,161.3,1264.3,161.3z"/>
<path d="M1242.1,108.5c-0.5,0-1.2,0.1-1.7,0.1c-5.2,0.5-8.4,1.9-9.5,3.9c-0.4,0.8-0.5,1.6-0.2,2.5c0.4,1.7,1.9,3.6,4.2,5.3
	c0.7,0.5,1.4,0.9,2.5,1.6c2.4,1.3,3.9,2,5.3,2.2c0.4,0.1,1,0.1,1.3,0c1.7-0.2,3.2-1.3,4.8-3.7c0.2-0.4,0.3-0.4,0.5-1
	c0.8-1.6,1.3-3.2,1.5-4.7c0-0.4,0-1.3,0-1.7c-0.1-1-0.5-1.8-1-2.5c-0.2-0.2-0.6-0.6-0.8-0.8c-0.9-0.7-2.2-1.1-3.8-1.3
	c-0.7-0.1-0.9-0.1-2-0.1C1242.7,108.5,1242.2,108.5,1242.1,108.5z M1245.7,112.6c0.5,0.1,0.8,0.6,0.7,1c0,0.3-0.2,0.5-0.4,0.7
	c-0.2,0.1,0.1,0.1-5,0.1c-5.1,0-4.8,0-5-0.1c-0.3-0.2-0.5-0.6-0.4-0.9c0.1-0.4,0.3-0.7,0.7-0.8
	C1236.4,112.6,1245.6,112.6,1245.7,112.6z M1243,115.3c0.2,0.1,0.3,0.2,0.4,0.4c0.1,0.2,0.1,0.2,0.1,0.4c0,0.2,0,0.2-0.1,0.4
	c-0.1,0.2-0.2,0.4-0.4,0.4l-0.2,0.1h-2.6h-2.6l-0.2-0.1c-0.4-0.2-0.6-0.5-0.5-1c0.1-0.3,0.3-0.6,0.6-0.7c0.1,0,0.2,0,2.7,0l2.6,0
	L1243,115.3z M1245.8,117.9c0.4,0.1,0.7,0.6,0.6,1c0,0.4-0.4,0.7-0.7,0.8c-0.2,0-6.4,0-6.6,0c-0.3-0.1-0.5-0.2-0.7-0.5
	c-0.1-0.1-0.1-0.2-0.1-0.3c0-0.2,0-0.4,0.2-0.6c0.1-0.2,0.3-0.3,0.5-0.4l0.2,0l3.3,0C1245.6,117.9,1245.7,117.9,1245.8,117.9z"/>
<path d="M1256.9,110.7c-0.4,0-0.8,0.1-0.9,0.1l-0.3,0v1v1l-0.5,0l-0.5,0v0.8l0,0.8h0.5h0.5l0,1.8l0,1.8l0.1,0.2
	c0.2,0.7,0.7,1.3,1.4,1.6c0.4,0.1,0.6,0.2,1.1,0.2c0.4,0,0.4,0,0.6,0c0.2,0,0.5-0.2,0.6-0.3c0,0-0.4-1.4-0.4-1.4c0,0-0.1,0-0.2,0
	c-0.2,0-0.4,0-0.6,0c-0.3-0.1-0.5-0.3-0.5-0.7c0-0.1,0-0.8,0-1.6v-1.5h0.5h0.5v-0.8l0-0.8l-0.5,0l-0.5,0v-1.1v-1.1l-0.1,0
	C1257.6,110.6,1257.2,110.7,1256.9,110.7z"/>
<path d="M1293.5,112.7c-0.8,0.1-1.5,0.4-2,0.9c-0.5,0.5-0.8,1-1,1.7c-0.1,0.4-0.1,0.6-0.1,1s0,0.6,0.1,1c0.2,0.6,0.5,1.2,1,1.7
	c0.7,0.7,1.5,1,2.5,1c0.8,0,1.5-0.2,2.1-0.6c0.3-0.2,0.8-0.7,0.9-1c0.4-0.7,0.7-1.5,0.6-2.3c-0.1-1-0.4-1.7-1.1-2.4
	c-0.6-0.5-1.2-0.9-2.1-0.9C1294.2,112.7,1293.7,112.7,1293.5,112.7z M1294.5,114.5c0.6,0.2,1.1,0.7,1.3,1.4c0.1,0.2,0.1,0.7,0,0.9
	c-0.1,0.6-0.6,1.1-1.1,1.3c-0.3,0.1-0.8,0.1-1.2,0c-0.5-0.1-0.9-0.5-1.1-1c-0.2-0.5-0.2-1.1,0-1.6c0.2-0.6,0.8-1,1.4-1.1
	C1293.9,114.4,1294.3,114.4,1294.5,114.5z"/>
<path d="M1261.5,112.9c-0.5,0.1-0.9,0.1-0.9,0.1l0,0v3.5v3.5h1h1v-2.2v-2.2l0.1-0.2c0.2-0.4,0.4-0.6,0.7-0.7
	c0.2-0.1,0.2-0.1,0.4-0.1c0.3,0,0.7,0.1,0.9,0.3c0,0,0.1,0.1,0.1,0c0,0,0.3-1.9,0.3-1.9c0,0-0.2,0-0.3,0c-0.8-0.1-1.4,0.1-2,0.6
	l-0.1,0.1v-0.4v-0.4l-0.1,0C1262.4,112.8,1262,112.8,1261.5,112.9z"/>
<path d="M1269.1,112.8c-0.4,0-0.8,0.2-1.2,0.3c-0.6,0.3-1.1,0.8-1.5,1.4c-0.2,0.3-0.3,0.7-0.4,1.2c0,0.2,0,1.1,0,1.3
	c0.1,0.8,0.4,1.4,0.9,1.9c0.5,0.5,1.1,0.8,1.9,0.9c0.5,0.1,1.3,0.1,1.8,0c0.8-0.1,1.3-0.4,1.7-0.8l0.1-0.1l-0.6-0.6l-0.6-0.6
	l-0.1,0.1c-0.5,0.3-1,0.5-1.6,0.5c-0.4,0-0.5,0-0.8-0.2c-0.4-0.2-0.6-0.5-0.7-1l0-0.1l2.4,0l2.5,0l0-0.6c0-0.8-0.1-1.2-0.2-1.6
	c-0.4-1-1.2-1.7-2.3-2C1270,112.8,1269.5,112.7,1269.1,112.8z M1269.8,114.4c0.7,0.1,1.2,0.6,1.2,1.1v0.1h-1.4h-1.4l0-0.1
	c0-0.3,0.1-0.5,0.3-0.7C1268.8,114.5,1269.3,114.4,1269.8,114.4z"/>
<path d="M1275.5,112.9c-0.5,0.1-0.9,0.1-0.9,0.1l-0.1,0v3.5v3.5h1h1v-2.3v-2.3l0.1-0.1c0.1-0.2,0.3-0.5,0.4-0.6
	c0.1,0,0.2-0.1,0.2-0.2c0.1-0.1,0.2-0.1,0.4-0.1c0.2,0,0.3,0,0.4,0.1c0.2,0.1,0.4,0.2,0.5,0.3c0.1,0.1,0.3,0.4,0.3,0.6
	c0,0.1,0,0.3,0,2.3l0,2.1h1h1l0-2.4c0-2.6,0-2.5-0.1-2.9c-0.2-0.7-0.8-1.3-1.4-1.6c-0.4-0.2-0.9-0.2-1.4-0.2c-0.6,0-1,0.2-1.4,0.5
	l-0.1,0.1l0-0.3v-0.3l-0.1,0C1276.4,112.8,1275.9,112.8,1275.5,112.9z"/>
<path d="M1285.2,112.8c-0.4,0-0.9,0.2-1.2,0.3c-0.8,0.4-1.4,1.3-1.6,2.3c-0.1,0.5-0.1,1.2,0,1.7c0.2,1.2,0.8,2.1,1.7,2.5
	c0.7,0.3,1.7,0.3,2.4,0.1c0.3-0.1,0.8-0.4,0.9-0.5c0,0,0,0,0,0c0.1,0,0,0.6,0,0.8c-0.1,0.4-0.3,0.8-0.5,0.9
	c-0.3,0.2-0.7,0.3-1.2,0.3c-0.6,0-1.3-0.2-1.8-0.5l-0.2-0.1l-0.5,0.5l-0.5,0.5l0.1,0.1c0.1,0.1,0.4,0.4,0.6,0.5
	c0.6,0.4,1.4,0.6,2.2,0.6c0.3,0,0.9,0,1.2-0.1c0.6-0.1,1.1-0.4,1.6-0.9c0.6-0.6,0.9-1.3,1-2.2c0-0.2,0-1.3,0-3.5l0-3.2l-0.9-0.1
	c-0.5-0.1-0.9-0.1-1-0.1l-0.1,0v0.3v0.3l-0.2-0.1c-0.3-0.3-0.7-0.4-1.2-0.5C1285.7,112.8,1285.5,112.8,1285.2,112.8z M1286.1,114.5
	c0.6,0.2,1,0.5,1.2,1c0,0.1,0,0.2,0.1,0.8c0,0.5,0,0.7,0,0.8c-0.1,0.5-0.4,0.8-0.9,1c-0.3,0.1-0.5,0.1-0.8,0.1
	c-0.3,0-0.5-0.1-0.7-0.2c-0.2-0.1-0.5-0.4-0.7-0.6c-0.2-0.4-0.3-1-0.3-1.4c0.1-0.5,0.3-0.9,0.6-1.2
	C1285,114.5,1285.6,114.3,1286.1,114.5z"/>
<path class="st5" d="M1391.4,161.3c24.8,0,45-20.1,45-45c0-24.9-20.2-45-45-45s-45,20.1-45,45
	C1346.4,141.2,1366.5,161.3,1391.4,161.3z"/>
<path d="M1415.1,116.7c-0.6-0.2-1.2,0.2-1.5,0.9c-0.2,0.6-0.4,1.3-0.7,1.9c-0.3,0.7-0.8,1.2-1.4,1.6c-0.4,0.2-0.5,0.2-0.6-0.2
	c-0.2-0.7-0.1-1.3,0-2c0.3-1.3,0.6-2.6,0.9-3.9c0.1-0.2,0.1-0.3,0.4-0.3c0.5,0,1,0,1.5,0c0.7,0,1.2-0.5,1.2-1.2
	c0-0.7-0.6-1.2-1.3-1.2c-0.4,0-0.8,0-1.2,0c0-0.2,0.1-0.4,0.1-0.6c0.2-0.6,0.3-1.3,0.5-1.9c0.1-0.6-0.1-1.1-0.6-1.4
	c-0.4-0.3-1-0.2-1.4,0.2c-0.2,0.2-0.3,0.5-0.4,0.7c-0.6,2.7-1.3,5.5-1.9,8.2c-0.2,1.1-0.6,2.1-1.2,3c-0.2,0.4-0.6,0.7-0.9,1
	c-0.4,0.4-0.6,0.3-0.7-0.3c-0.1-0.7-0.1-1.3,0.1-2c0.4-1.7,0.8-3.4,1.2-5c0.2-0.9-0.4-1.7-1.3-1.7c-0.9,0-1.8,0-2.7,0h-0.4
	c0.3-1.4,0.6-2.7,0.9-4c0.7,0.1,1.4,0.3,2,0.3c0.6,0.1,1.3,0,1.9-0.2c1.4-0.5,2.2-1.9,2.1-3.4c-0.1-1.4-1.1-2.5-2.4-2.9
	c-1.2-0.3-2.2,0.1-3.2,0.7c-0.6,0.4-1.1,0.9-1.5,1.5c-0.1,0.1-0.1,0.1-0.2,0.3c-0.3-0.4-0.5-0.8-0.8-1.1c-0.2-0.4-0.5-0.6-0.9-0.6
	c-0.4,0-0.8,0.1-1.1,0.5c-0.3,0.4-0.3,0.8,0,1.2c0.5,0.8,1.1,1.6,1.8,2.2c0.2,0.1,0.2,0.3,0.2,0.5c-0.4,1.6-0.7,3.1-1.1,4.7
	c0,0.1,0,0.2-0.1,0.3c-0.8,0-1.5,0.2-1.6,1.1c-0.1,0.6,0.3,1,1,1.3c-0.3,1.2-0.4,2.4-1,3.6c-0.6,1.3-1.5,2.2-2.8,2.7
	c-1.1,0.4-2.1,0.3-3-0.4c-0.2-0.2-0.4-0.4-0.6-0.6c0.1,0,0.2-0.1,0.3-0.1c2.6-0.7,4.4-2.2,5.1-4.9c0.3-1.1,0-2.1-0.8-2.8
	c-0.7-0.6-1.5-0.7-2.4-0.5c-1.6,0.4-2.7,1.4-3.5,2.7c-0.7,1.1-1.1,2.3-1.2,3.7c0,0.3-0.1,0.6-0.3,0.8c-0.5,0.8-1.2,1.5-2,1.9
	c-0.1,0.1-0.2,0.1-0.4,0.1c-0.1-0.5,0-1,0.1-1.5c0.3-1.1,0.5-2.2,0.8-3.3c0.2-0.7,0.3-1.5,0.1-2.2c-0.3-1.5-1.8-2.4-3.3-2
	c-0.4,0.1-0.8,0.3-1.1,0.5c-0.1,0-0.3,0-0.3,0c-0.8-0.5-1.6-0.2-1.9,0.7c-0.4,1-0.9,1.8-1.8,2.5c-0.1,0.1-0.2,0.1-0.3,0.2
	c0.1-0.3,0.1-0.6,0.2-0.9c0.4-1.8,0.7-3.7,0.7-5.6c0-1.2-0.2-2.3-0.8-3.4c-1-1.8-2.9-2.6-5-2c-1.8,0.5-3.1,1.6-4.3,2.9
	c-1.6,1.9-2.6,4.2-3.1,6.6c-0.2,0.8-0.3,1.7-0.4,2.6c0,0.1,0,0.2-0.1,0.3v1.8c0.1,0.6,0.2,1.2,0.3,1.8c0.3,1.3,0.9,2.5,1.9,3.4
	c1.1,1,2.4,1.7,3.9,1.5c1.2-0.1,2.1-0.7,3-1.5c0.9-0.9,1.6-1.9,2.1-3.1c0.2-0.5,0.4-1,0.6-1.6c0.1-0.1,0.2-0.3,0.3-0.4
	c0.5-0.3,1.1-0.6,1.7-1c-0.1,0.5-0.2,1-0.4,1.5c-0.2,1-0.5,1.9-0.7,2.9c-0.1,0.6,0,1.1,0.5,1.4c0.4,0.3,1,0.3,1.3,0
	c0.2-0.2,0.4-0.5,0.5-0.8c0.4-1.3,0.6-2.6,1-3.9c0.3-1.3,0.8-2.5,1.6-3.5c0.2-0.3,0.5-0.5,0.8-0.8c0.3-0.2,0.7-0.1,0.7,0.3
	c0,0.5-0.1,0.9-0.2,1.4c-0.2,1.1-0.6,2.3-0.8,3.4c-0.1,0.6-0.1,1.3,0,1.9c0.2,1.5,1.6,2.3,3.1,1.9c0.9-0.2,1.7-0.8,2.4-1.5
	c0.1-0.1,0.1-0.2,0.2-0.3c0.9,1.2,2,2,3.4,2.2c1.4,0.2,2.7,0,4-0.8c0,0.1,0,0.2,0,0.3c-0.5,2-0.9,3.9-1.4,5.9
	c-0.2,0.9,0,1.3,0.8,1.7h0.6c0.6-0.2,0.8-0.6,1-1.2c1.1-4.8,2.2-9.6,3.3-14.4c0.1-0.3,0.1-0.4,0.4-0.3c0.6,0,1.2,0,1.8,0
	c-0.1,0.5-0.2,0.9-0.3,1.3c-0.3,1.3-0.5,2.5-0.7,3.8c-0.1,0.8,0,1.6,0.3,2.3c0.6,1.5,2.1,2.2,3.6,1.5c0.5-0.2,1-0.6,1.4-1
	c0.1-0.1,0.2-0.2,0.3-0.2c0,0,0.1,0.1,0.1,0.1c0.8,1.1,2,1.4,3.3,0.8c1-0.5,1.8-1.3,2.3-2.2c0.6-0.9,1-1.9,1.2-3c0,0,0-0.1,0.1-0.1
	v-0.3C1415.9,117.2,1415.6,116.8,1415.1,116.7z M1406.6,104.3c0.5-0.1,0.9,0.2,1,0.7c0.1,0.5-0.2,1-0.7,1.2c-0.6,0.2-1.1,0.1-1.7,0
	c-0.2-0.1-0.5-0.1-0.8-0.2C1404.9,105,1405.6,104.5,1406.6,104.3z M1378,109.4c0,1.9-0.4,3.8-1.3,5.5c-0.3,0.6-0.7,1.1-1.2,1.7
	c-0.2,0.3-0.6,0.5-0.9,0.6c-0.6,0.3-0.9,0.2-1.3-0.3c-0.3-0.3-0.7-0.5-1.2-0.4c-0.5,0.1-0.8,0.5-0.9,1c0,0.3,0,0.6,0.2,0.8
	c0.8,1.3,2.2,1.8,3.8,1.4c0.1,0,0.2-0.1,0.4-0.1c-0.5,1-1.1,1.9-2.1,2.4c-0.6,0.3-1.3,0.4-1.9,0c-1.1-0.6-1.6-1.5-2-2.6
	c-0.4-1.3-0.4-2.6-0.2-3.9c0.3-2,0.8-3.8,1.8-5.6c0.7-1.2,1.6-2.3,2.7-3.1c0.6-0.4,1.2-0.7,2-0.7c0.8,0,1.4,0.3,1.8,1.1
	C1377.9,107.9,1378,108.6,1378,109.4z M1394.9,114.1c0.2-0.1,0.4-0.1,0.6-0.1c0,0.2,0.1,0.4,0,0.6c-0.3,1.2-1.7,2.4-3,2.8
	C1392.9,115.9,1393.5,114.7,1394.9,114.1z"/>
<path d="M1408.2,110.5c0,0.7-0.5,1.2-1.1,1.2c-0.6,0-1.2-0.6-1.2-1.2c0-0.7,0.5-1.2,1.2-1.2C1407.7,109.3,1408.2,109.8,1408.2,110.5
	z"/>
<path class="st6" d="M532.1,90c24.9,0,45-20.1,45-45s-20.1-45-45-45c-24.9,0-45,20.1-45,45S507.2,90,532.1,90z"/>
<path d="M556.3,38.8c-0.4,0-0.7,0.3-0.7,0.7v0c0,0.4,0.3,0.7,0.7,0.7c0.4,0,0.7-0.3,0.7-0.7v0C557,39.2,556.7,38.8,556.3,38.8z"/>
<path d="M530.8,41.2c-0.4,0-0.9,0.1-1.3,0.3c-0.4,0.2-0.7,0.4-1,0.7c-0.3,0.3-0.5,0.6-0.6,1c-0.1,0.4-0.2,0.8-0.2,1.2
	c0,0.4,0.1,0.8,0.2,1.2c0.1,0.4,0.3,0.7,0.6,1c0.3,0.3,0.6,0.5,1,0.7c0.4,0.2,0.8,0.3,1.3,0.3c0.4,0,0.7-0.1,1.1-0.2
	c0.3-0.1,0.6-0.3,0.8-0.5l0.1-0.1v0.6h1.3v-6h-1.3V42l-0.1-0.1c-0.2-0.2-0.5-0.4-0.8-0.5C531.5,41.2,531.1,41.2,530.8,41.2z
	 M532.6,43.5c0.2,0.5,0.2,1.2,0,1.7c-0.1,0.2-0.2,0.4-0.4,0.6c-0.2,0.2-0.4,0.3-0.6,0.4c-0.2,0.1-0.5,0.1-0.7,0.1
	c-0.3,0-0.5-0.1-0.7-0.2c-0.2-0.1-0.4-0.2-0.6-0.4c-0.2-0.2-0.3-0.4-0.4-0.6c-0.1-0.2-0.1-0.5-0.1-0.7c0-0.3,0-0.5,0.1-0.8
	c0.1-0.2,0.2-0.4,0.4-0.6c0.2-0.2,0.4-0.3,0.6-0.4c0.2-0.1,0.5-0.2,0.7-0.2c0.2,0,0.5,0,0.7,0.1c0.2,0.1,0.4,0.2,0.6,0.4
	C532.4,43,532.5,43.2,532.6,43.5z"/>
<path d="M536.3,39.8H535v5.6c0,0.6,0.2,1,0.6,1.3c0.4,0.3,0.9,0.5,1.7,0.5h0.9v-1.1h-0.9c-0.6,0-1-0.3-1-0.9v-2.8h1.9v-1.1h-1.9
	V39.8z"/>
<path d="M541.7,41.2c-0.4,0-0.9,0.1-1.3,0.3c-0.4,0.2-0.7,0.4-0.9,0.7c-0.3,0.3-0.5,0.6-0.6,1c-0.1,0.4-0.2,0.8-0.2,1.2
	c0,0.4,0.1,0.8,0.2,1.2c0.1,0.4,0.3,0.7,0.6,1c0.3,0.3,0.6,0.5,0.9,0.7c0.4,0.2,0.8,0.3,1.3,0.3c0.4,0,0.7-0.1,1.1-0.2
	c0.3-0.1,0.6-0.3,0.8-0.5l0.1-0.1v0.6h1.3v-6h-1.3V42l-0.1-0.1c-0.2-0.2-0.5-0.4-0.8-0.5C542.4,41.2,542,41.2,541.7,41.2z
	 M543.5,43.5c0.2,0.5,0.2,1.2,0,1.7c-0.1,0.2-0.2,0.4-0.4,0.6c-0.2,0.2-0.4,0.3-0.6,0.4c-0.2,0.1-0.5,0.1-0.7,0.1
	c-0.3,0-0.5-0.1-0.7-0.2c-0.2-0.1-0.4-0.2-0.6-0.4c-0.2-0.2-0.3-0.4-0.4-0.6c-0.1-0.2-0.1-0.5-0.1-0.7c0-0.3,0-0.5,0.1-0.8
	c0.1-0.2,0.2-0.4,0.4-0.6c0.2-0.2,0.4-0.3,0.6-0.4c0.2-0.1,0.5-0.2,0.7-0.2c0.2,0,0.5,0,0.7,0.1c0.2,0.1,0.4,0.2,0.6,0.4
	C543.2,43,543.4,43.2,543.5,43.5z"/>
<path d="M556.9,41.3h-1.3v6h1.3V41.3z"/>
<path d="M564.7,38.8c-0.4,0-0.7,0.3-0.7,0.7v0c0,0.4,0.3,0.7,0.7,0.7s0.7-0.3,0.7-0.7v0C565.4,39.2,565.1,38.8,564.7,38.8z"/>
<path d="M565.4,41.3h-1.3v6h1.3V41.3z"/>
<path d="M550.9,45v-3.7h-1.3V45c0,0.7-0.5,1.2-1.2,1.2c-0.7,0-1.2-0.5-1.2-1.2v-3.7h-1.3V45c0,1.4,1.1,2.5,2.5,2.5
	c0.7,0,1.4-0.3,1.8-0.8l0,0l0,0c0.7,0.8,1.8,1,2.8,0.6c1-0.4,1.6-1.3,1.6-2.3v-3.6h-1.3V45c0,0.7-0.5,1.2-1.2,1.2
	S550.9,45.7,550.9,45z"/>
<path d="M561.8,43.9c0.8-0.9,1.2-1.9,1.4-2.5l0,0h-1.3c-0.3,0.8-1,2.2-2.5,2.5v-4.9h-1.3v8.4h1.3v-2.2c0.5-0.1,0.9-0.2,1.4-0.5
	l1.4,2.7h1.4L561.8,43.9z"/>
<path d="M523.6,42.1c-0.3,0.3-0.5,0.6-0.6,1c-0.2,0.4-0.2,0.8-0.2,1.2c0,0.4,0.1,0.8,0.2,1.2c0.1,0.4,0.4,0.7,0.6,1
	c0.3,0.3,0.6,0.5,1,0.6c0.4,0.2,0.8,0.2,1.2,0.2h1.7v-1.2h-1.7c-0.3,0-0.5,0-0.7-0.1c-0.2-0.1-0.4-0.2-0.6-0.4
	c-0.2-0.2-0.3-0.4-0.4-0.6c-0.2-0.5-0.2-1,0-1.5c0.1-0.2,0.2-0.4,0.4-0.6c0.2-0.2,0.4-0.3,0.6-0.4c0.2-0.1,0.5-0.1,0.7-0.1h1.7v-1.2
	h-1.7c-0.4,0-0.8,0.1-1.2,0.2C524.2,41.6,523.9,41.8,523.6,42.1z"/>
<path d="M498.5,34.6v19.5H518V34.6H498.5z M512.1,50.2h-3.4c-3.2,0-5.8-2.6-5.8-5.8c0-3.2,2.6-5.8,5.8-5.8h3.4V50.2z"/>
</svg>
