<svg width="1437" height="180" viewBox="0 0 1437 180" fill="none" xmlns="http://www.w3.org/2000/svg">
<path d="M634.525 153.138C654.822 138.795 659.649 110.714 645.306 90.4179C630.964 70.1212 602.883 65.2944 582.586 79.637C562.29 93.9795 557.463 122.06 571.805 142.357C586.148 162.653 614.229 167.48 634.525 153.138Z" fill="#00FFFF"/>
<path d="M582.871 138.256C582.723 138.046 582.773 137.757 582.982 137.609C583.544 137.213 584.105 136.817 584.665 136.417C584.772 136.341 584.851 136.298 584.964 136.413C585.76 137.232 586.682 137.23 587.658 136.788C588.37 136.466 589.001 136.025 589.487 135.405C589.84 134.954 590.007 134.454 589.79 133.884C589.611 133.418 589.285 133.146 588.776 133.105C588.111 133.053 587.476 133.204 586.86 133.422C585.837 133.784 584.826 134.183 583.807 134.557C583.436 134.693 583.051 134.781 582.657 134.83C581.477 134.979 580.587 134.451 579.854 133.613C579.01 132.648 578.569 131.539 578.852 130.231C579.033 129.394 579.491 128.705 580.084 128.106C581.078 127.103 582.195 126.279 583.569 125.873C585.162 125.402 586.509 125.861 587.65 126.998C588.11 127.457 588.093 127.473 587.56 127.85C587.293 128.039 587.024 128.225 586.76 128.416C586.334 128.725 585.862 128.787 585.418 128.538C584.479 128.011 583.627 128.252 582.795 128.768C582.374 129.03 581.984 129.337 581.693 129.749C581.31 130.291 581.285 130.929 581.611 131.444C581.819 131.774 582.116 131.926 582.496 131.946C583.084 131.976 583.627 131.792 584.165 131.593C585.203 131.21 586.234 130.807 587.279 130.445C587.762 130.279 588.267 130.149 588.783 130.142C590.2 130.124 591.159 130.875 591.84 132.035C592.969 133.956 592.502 135.709 590.968 137.258C590.558 137.7 589.322 138.658 587.989 139.291C586.349 140.071 584.738 139.875 583.322 138.661C583.221 138.574 583.143 138.457 583.025 138.392C582.964 138.36 582.911 138.313 582.871 138.256Z" fill="black"/>
<path d="M619.422 117.129C617.618 117.934 615.987 117.726 614.531 116.355C613.35 115.242 612.445 113.957 612.095 112.354C611.744 110.748 612.257 109.4 613.476 108.305C614.162 107.688 614.931 107.206 615.826 106.964C617.202 106.593 618.437 106.952 619.532 107.791C620.937 108.869 621.89 110.267 622.288 112.006C622.647 113.576 622.172 114.9 621.031 116.019C620.467 116.572 619.579 117.059 619.422 117.129ZM615.332 113.222C615.802 113.886 616.259 114.414 616.843 114.817C617.558 115.31 618.373 115.292 619.081 114.783C619.737 114.311 619.997 113.415 619.711 112.512C619.455 111.702 619.007 110.997 618.445 110.363C618.074 109.943 617.65 109.605 617.102 109.433C615.75 109.009 614.42 110.113 614.604 111.521C614.691 112.193 614.99 112.777 615.332 113.222Z" fill="black"/>
<path d="M603.283 121.093C602.168 119.514 601.052 117.936 599.936 116.357C599.45 115.668 599.592 114.853 600.288 114.361C601.428 113.554 602.56 112.737 603.713 111.946C604.697 111.271 605.769 110.799 606.98 110.73C608.198 110.66 609.26 111.088 610.186 111.827C611.818 113.131 613.005 114.765 613.628 116.771C614.288 118.895 613.613 121.063 611.88 122.474C610.32 123.744 608.615 124.818 606.995 126.008C606.808 126.145 606.76 126.009 606.683 125.9C605.55 124.297 604.418 122.694 603.285 121.091C603.284 121.092 603.284 121.092 603.283 121.093ZM605.14 119.042C605.92 120.146 606.699 121.25 607.48 122.353C607.554 122.457 607.602 122.615 607.792 122.472C608.552 121.901 609.37 121.41 610.083 120.777C611.106 119.869 611.429 118.721 610.937 117.457C610.425 116.14 609.623 115.006 608.533 114.104C607.342 113.119 606.138 113.092 604.858 113.969C604.197 114.423 603.548 114.897 602.883 115.346C602.687 115.478 602.677 115.57 602.813 115.758C603.596 116.848 604.365 117.946 605.14 119.042Z" fill="black"/>
<path d="M602.132 120.885C602.678 121.658 603.228 122.429 603.77 123.205C604.163 123.766 604.465 124.371 604.627 125.042C604.785 125.701 604.722 126.332 604.408 126.938C603.415 128.855 601.843 129.935 599.709 130.235C598.673 130.38 597.861 129.975 597.145 129.294C596.809 128.975 596.514 128.618 596.247 128.238C595.119 126.632 593.986 125.029 592.847 123.432C592.722 123.258 592.716 123.176 592.907 123.048C593.515 122.639 594.113 122.215 594.703 121.78C594.88 121.648 594.958 121.66 595.086 121.843C596.279 123.548 597.486 125.243 598.683 126.946C599.088 127.522 599.578 127.922 600.337 127.807C601.113 127.688 601.652 127.256 601.96 126.536C602.205 125.965 602.053 125.451 601.719 124.976C600.711 123.539 599.693 122.108 598.683 120.673C598.309 120.142 598.272 119.542 598.623 119.105C598.994 118.643 599.543 118.394 600.009 118.046C600.137 117.95 600.17 118.115 600.217 118.181C600.858 119.081 601.495 119.983 602.132 120.885Z" fill="black"/>
<path d="M630.611 100.726C631.198 101.556 631.788 102.383 632.369 103.217C632.801 103.837 633.355 104.182 634.137 104.002C634.952 103.815 635.478 103.302 635.692 102.498C635.821 102.015 635.644 101.582 635.368 101.191C634.357 99.7544 633.34 98.3225 632.33 96.8866C631.928 96.3146 631.927 95.6903 632.359 95.2287C632.726 94.8367 633.216 94.5941 633.643 94.2728C633.7 94.2295 633.753 94.2408 633.794 94.2986C633.835 94.3542 633.875 94.4104 633.915 94.4666C635.083 96.1189 636.249 97.7709 637.418 99.4217C637.676 99.7858 637.879 100.179 638.061 100.584C638.597 101.775 638.366 102.863 637.628 103.902C636.498 105.493 634.956 106.333 633.029 106.479C632.12 106.548 631.417 106.101 630.791 105.509C630.46 105.197 630.171 104.849 629.909 104.476C628.781 102.87 627.648 101.266 626.508 99.6674C626.375 99.4827 626.375 99.392 626.575 99.2582C627.166 98.8603 627.749 98.4478 628.323 98.0236C628.516 97.8809 628.61 97.8767 628.755 98.0875C629.363 98.9744 629.991 99.8479 630.611 100.726Z" fill="black"/>
<path d="M627.755 102.344C627.021 102.863 626.311 103.363 625.603 103.868C625.482 103.953 625.394 103.873 625.304 103.829C624.122 103.255 622.764 104.229 622.564 105.236C622.449 105.816 622.625 106.354 622.877 106.862C623.243 107.601 623.716 108.266 624.327 108.825C625.739 110.114 627.198 109.325 627.808 108.213C627.917 108.014 627.943 107.801 627.963 107.586C628.001 107.172 628.191 106.869 628.543 106.639C629.008 106.336 629.458 106.01 629.903 105.68C630.077 105.551 630.128 105.584 630.195 105.779C630.756 107.412 630.278 109.226 628.973 110.402C628.289 111.019 627.547 111.542 626.653 111.795C625.074 112.24 623.694 111.804 622.512 110.746C621.376 109.73 620.523 108.507 620.123 107.014C619.647 105.244 620.287 103.52 621.775 102.436C622.569 101.858 623.407 101.392 624.396 101.256C625.682 101.078 626.751 101.554 627.755 102.344Z" fill="black"/>
<path d="M596.126 133.78C595.19 134.312 594.485 134.18 593.819 133.335C593.734 133.227 593.599 133.04 593.519 132.928C591.413 129.949 589.311 126.969 587.198 123.995C587.05 123.786 587.045 123.684 587.275 123.549C587.555 123.383 587.811 123.177 588.079 122.989C588.792 122.484 589.553 122.609 590.065 123.318C590.347 123.71 590.628 124.103 590.899 124.503C590.99 124.639 591.058 124.664 591.197 124.559C591.513 124.321 591.841 124.098 592.166 123.872C592.224 123.832 592.292 123.738 592.367 123.834C592.687 124.25 593.012 124.667 592.882 125.251C592.803 125.605 592.631 125.897 592.313 126.083C592.141 126.183 592.145 126.268 592.255 126.422C593.313 127.908 594.363 129.4 595.417 130.888C595.661 131.232 595.938 131.292 596.312 131.072C596.533 130.941 596.74 130.785 596.95 130.637C597.036 130.577 597.106 130.523 597.192 130.647C597.523 131.126 597.861 131.599 598.196 132.074C598.232 132.125 598.269 132.175 598.224 132.26C598.194 132.332 598.162 132.32 598.033 132.411C597.514 132.777 596.256 133.707 596.126 133.78Z" fill="black"/>
<g opacity="0.9">
<path d="M45.4883 163.064C70.3411 163.064 90.4883 142.917 90.4883 118.064C90.4883 93.2116 70.3411 73.0645 45.4883 73.0645C20.6355 73.0645 0.488281 93.2116 0.488281 118.064C0.488281 142.917 20.6355 163.064 45.4883 163.064Z" fill="#000EDC"/>
<path d="M19.1272 111.48V112.499L16.4697 114.017L13.8123 115.536V118.586V121.641L13.973 121.548C14.0623 121.494 14.8574 121.038 15.7372 120.534L17.3407 119.614V118.613C17.3407 118.064 17.3318 117.613 17.3183 117.613C17.3049 117.613 16.9253 117.823 16.4742 118.082C16.0231 118.341 15.6345 118.551 15.6033 118.551C15.5675 118.551 15.5541 118.287 15.563 117.555L15.5765 116.563L17.229 115.616C18.1402 115.098 18.9352 114.638 19.0067 114.598L19.1272 114.526V117.577V120.628L15.5765 122.66C13.6247 123.777 12.0346 124.692 12.0391 124.696C12.0435 124.701 12.441 124.933 12.9189 125.206C13.7854 125.701 13.7899 125.701 13.9239 125.634C13.9953 125.598 15.5943 124.687 17.4747 123.607L20.8914 121.646V116.568V111.485L20.1992 111.083C19.8195 110.864 19.422 110.636 19.3193 110.574L19.1272 110.462V111.48Z" fill="white"/>
<path d="M51.3977 112.129C51.3844 112.16 51.3801 114.174 51.3844 116.609L51.3977 121.03H52.2016H53.0059L53.0282 118.998L53.0505 116.966L53.1754 116.711C53.4033 116.251 53.8187 116.006 54.3904 116.006C54.9531 116.006 55.3282 116.233 55.5338 116.685C55.6407 116.921 55.6407 116.921 55.6544 118.985L55.6677 121.053H56.4716H57.2755L57.2622 118.761C57.2488 116.752 57.2355 116.443 57.1685 116.207C57.0389 115.764 56.8647 115.465 56.5565 115.152C56.0831 114.67 55.6141 114.483 54.8815 114.483C54.1492 114.487 53.6398 114.67 53.2467 115.077L53.0282 115.295L53.0192 113.696L53.0059 112.098L52.2106 112.084C51.6033 112.075 51.4111 112.084 51.3977 112.129Z" fill="white"/>
<path d="M27.3477 114.599C26.2624 114.844 25.3468 115.8 25.0654 116.979C24.985 117.301 24.9761 117.471 24.9895 117.971C25.0074 118.502 25.0252 118.623 25.1458 118.967C25.32 119.458 25.5076 119.775 25.8604 120.159C26.4098 120.753 27.0396 121.053 27.8167 121.089C28.6073 121.12 29.1745 120.923 29.6658 120.432L29.9517 120.146L29.9293 120.74C29.907 121.298 29.8936 121.347 29.7551 121.625C29.4916 122.143 29.0226 122.393 28.3259 122.393C27.7051 122.393 27.2093 122.165 26.9056 121.745L26.7403 121.508L26.115 121.888C25.7756 122.098 25.4763 122.286 25.454 122.308C25.3915 122.366 25.7041 122.799 26.0168 123.085C26.3115 123.357 26.7135 123.581 27.1914 123.733C27.6693 123.884 28.6296 123.911 29.1343 123.782C30.0053 123.563 30.6975 123.085 31.0861 122.437C31.1397 122.352 31.238 122.12 31.3094 121.924L31.4345 121.566L31.4479 118.136L31.4613 114.71H30.6975H29.9383V115.095V115.483L29.706 115.237C29.438 114.961 29.1477 114.777 28.7815 114.652C28.442 114.541 27.7319 114.514 27.3477 114.599ZM28.8395 116.184C29.1566 116.305 29.4112 116.492 29.5944 116.747C29.8355 117.082 29.9159 117.35 29.9114 117.837C29.9114 118.418 29.7998 118.699 29.4291 119.07C29.0628 119.436 28.7725 119.552 28.2142 119.556C27.8391 119.556 27.7899 119.548 27.4728 119.387C27.0887 119.199 26.8788 118.989 26.6867 118.596C26.5751 118.373 26.5661 118.306 26.5661 117.837C26.5661 117.355 26.5751 117.305 26.7046 117.033C26.9145 116.6 27.2897 116.278 27.7497 116.135C27.9864 116.064 28.5849 116.091 28.8395 116.184Z" fill="white"/>
<path d="M35.3255 114.616C34.794 114.763 34.3921 115.067 34.1509 115.514L34.066 115.67L34.0526 115.166L34.0392 114.665H33.2621H32.4805V117.747V120.829H33.2576H34.0348L34.0526 119.163C34.075 117.184 34.0794 117.157 34.4859 116.76C34.8074 116.447 35.129 116.313 35.5935 116.304L35.9196 116.296V115.411V114.531L35.7767 114.536C35.6963 114.536 35.4953 114.572 35.3255 114.616Z" fill="white"/>
<path d="M38.6949 114.598C37.4756 114.875 36.5374 115.982 36.3632 117.358C36.1846 118.747 36.8992 120.154 38.0786 120.739C39.0966 121.244 40.3296 121.092 41.0529 120.373L41.2808 120.141V120.507V120.873H42.0623H42.8439V117.791V114.71H42.0623H41.2808V115.067V115.429L41.1425 115.273C40.937 115.036 40.5082 114.768 40.1687 114.665C39.7803 114.54 39.079 114.509 38.6949 114.598ZM40.316 116.197C40.9593 116.492 41.3254 117.17 41.2674 117.966C41.2181 118.582 40.861 119.104 40.2983 119.373C40.0391 119.493 39.9632 119.511 39.606 119.511C39.2932 119.507 39.146 119.484 38.9494 119.408C38.5919 119.265 38.2794 118.966 38.1009 118.604C37.958 118.319 37.9533 118.287 37.9533 117.769C37.9533 117.264 37.9623 117.215 38.0829 116.979C38.3018 116.545 38.7125 116.201 39.155 116.09C39.2309 116.067 39.4674 116.058 39.6773 116.067C39.9765 116.081 40.1194 116.108 40.316 116.197Z" fill="white"/>
<path d="M46.7565 114.598C46.3364 114.706 45.9256 114.925 45.6711 115.183L45.4342 115.42V115.063V114.71H44.6527H43.8711V119.087V123.464H44.6527H45.4342V121.874V120.28L45.6711 120.507C46.1578 120.963 46.7608 121.164 47.5334 121.128C48.3153 121.092 48.8733 120.829 49.4273 120.244C49.8158 119.829 50.0033 119.52 50.1819 119.011C50.3025 118.663 50.3205 118.551 50.3385 117.993C50.3518 117.471 50.3428 117.305 50.2625 116.979C50.008 115.903 49.2398 115.01 48.284 114.679C47.8685 114.536 47.1539 114.5 46.7565 114.598ZM47.8462 116.238C48.181 116.403 48.4582 116.684 48.6235 117.033C48.7394 117.283 48.7617 117.386 48.775 117.77C48.7887 118.136 48.775 118.265 48.7037 118.475C48.3329 119.525 47.1226 119.945 46.1848 119.346C45.9256 119.181 45.7424 118.958 45.5818 118.609C45.4252 118.274 45.3853 117.667 45.4969 117.292C45.6398 116.796 46.0239 116.367 46.493 116.18C46.8278 116.046 47.5157 116.077 47.8462 116.238Z" fill="white"/>
<path d="M60.7795 114.607C60.1455 114.741 59.5871 115.036 59.0914 115.505C57.6799 116.836 57.7738 119.065 59.288 120.289C59.8863 120.771 60.5876 121.012 61.4228 121.012C62.3876 121.012 63.1511 120.749 63.7541 120.213C63.973 120.012 64.3705 119.52 64.3705 119.444C64.3705 119.422 64.2142 119.32 64.0267 119.217L63.6828 119.029L63.5713 119.181C62.9369 120.043 61.8605 120.427 60.8245 120.159C60.0069 119.949 59.2923 119.288 59.0554 118.516C58.9438 118.154 58.9352 117.471 59.0378 117.117C59.2833 116.287 59.9713 115.626 60.8245 115.402C61.1593 115.318 61.8069 115.318 62.1507 115.407C62.7224 115.554 63.2631 115.929 63.5086 116.349L63.6202 116.541L63.9687 116.354L64.3215 116.166L64.2009 115.947C63.6425 114.916 62.1194 114.317 60.7795 114.607Z" fill="white"/>
<path d="M67.1982 114.58C66.7695 114.665 66.2557 114.982 66.0012 115.331C65.9253 115.429 65.8536 115.514 65.836 115.514C65.8137 115.514 65.8003 115.322 65.8003 115.09V114.665H65.3982H64.9961V117.747V120.829H65.3939H65.7913L65.8137 118.872C65.827 117.22 65.845 116.881 65.9073 116.657C66.0682 116.09 66.363 115.728 66.8677 115.483C67.0953 115.371 67.1626 115.357 67.609 115.357C68.0287 115.357 68.127 115.371 68.2789 115.456C68.5025 115.576 68.757 115.84 68.8729 116.072C69.0382 116.407 69.0605 116.706 69.0605 118.805V120.829H69.4583H69.8601L69.8781 118.828C69.8914 117.099 69.9047 116.796 69.9717 116.563C70.1236 116.045 70.4227 115.67 70.8429 115.474C71.1957 115.308 71.8296 115.286 72.1961 115.424C72.6562 115.594 72.9867 116.036 73.0803 116.59C73.1026 116.755 73.1249 117.707 73.1249 118.85V120.829H73.527H73.9291V118.716C73.9291 116.389 73.9155 116.237 73.6609 115.733C73.4781 115.375 73.1026 114.982 72.7721 114.804C72.1291 114.464 71.2579 114.442 70.597 114.75C70.2129 114.929 70.0163 115.085 69.7931 115.389L69.6055 115.648L69.4939 115.456C69.3377 115.188 68.9669 114.857 68.6811 114.728C68.2879 114.545 67.6716 114.487 67.1982 114.58Z" fill="white"/>
<path d="M75.9386 114.603C75.3222 114.732 74.7282 115.161 74.514 115.626C74.2235 116.242 74.3531 116.988 74.8222 117.399C75.1257 117.667 75.3849 117.783 76.3184 118.047C77.6939 118.435 78.0424 118.65 78.145 119.172C78.221 119.57 77.9664 119.923 77.4797 120.097C76.8767 120.316 76.1754 120.28 75.6128 119.998C75.3536 119.869 74.9694 119.494 74.9295 119.328C74.9158 119.27 74.8848 119.221 74.8668 119.221C74.8355 119.221 74.1969 119.561 74.1612 119.596C74.1166 119.646 74.3801 120.038 74.6256 120.284C74.8355 120.494 75.0008 120.61 75.2776 120.735C75.7823 120.972 76.0505 121.026 76.6535 121.021C77.7299 121.017 78.5158 120.632 78.851 119.945C78.9849 119.677 78.9982 119.61 78.9982 119.244C78.9982 118.904 78.9802 118.801 78.8819 118.596C78.7437 118.301 78.4622 118.02 78.1274 117.841C77.9934 117.77 77.511 117.609 77.0553 117.484C76.0952 117.22 75.5591 116.983 75.3716 116.733C75.2643 116.595 75.2463 116.528 75.2463 116.274C75.2463 116.014 75.2643 115.956 75.3759 115.809C75.4608 115.697 75.6081 115.59 75.8003 115.496C76.0772 115.367 76.1265 115.358 76.5862 115.358C76.8587 115.358 77.1579 115.385 77.2608 115.411C77.5467 115.501 77.8638 115.737 78.0068 115.97C78.0827 116.086 78.145 116.184 78.154 116.184C78.1986 116.184 78.842 115.813 78.842 115.786C78.842 115.702 78.5694 115.335 78.3819 115.175C77.7699 114.634 76.8141 114.411 75.9386 114.603Z" fill="white"/>
</g>
<path d="M127.426 125.666C152.279 125.666 172.426 105.519 172.426 80.666C172.426 55.8132 152.279 35.666 127.426 35.666C102.573 35.666 82.4258 55.8132 82.4258 80.666C82.4258 105.519 102.573 125.666 127.426 125.666Z" fill="#31FF3F"/>
<path d="M105.25 72.7907C104.721 72.8242 104.053 72.8778 103.597 72.9224C98.3855 73.4498 95.162 74.7901 94.1389 76.854C93.7547 77.6316 93.6809 78.4693 93.9133 79.3963C94.3467 81.1096 95.8545 83.0262 98.0683 84.684C98.7608 85.1999 99.4399 85.6312 100.581 86.2745C102.954 87.6126 104.529 88.2692 105.876 88.4816C106.253 88.5418 106.89 88.5641 107.227 88.5284C108.963 88.3474 110.448 87.1972 112.044 84.7956C112.298 84.4115 112.318 84.378 112.584 83.8441C113.386 82.2378 113.898 80.6005 114.052 79.1504C114.096 78.735 114.096 77.8526 114.052 77.4908C113.933 76.5325 113.58 75.6635 113.038 75.0022C112.845 74.7678 112.475 74.4168 112.216 74.2249C111.297 73.5413 109.995 73.0787 108.445 72.889C107.783 72.8062 107.549 72.795 106.479 72.7885C105.878 72.7864 105.324 72.7864 105.25 72.7907ZM108.9 76.957C109.365 77.0642 109.682 77.52 109.617 77.9891C109.58 78.2526 109.399 78.5251 109.168 78.659C108.938 78.793 109.24 78.7865 104.167 78.7865C99.0937 78.7865 99.3952 78.793 99.1652 78.659C98.848 78.4736 98.6581 78.0805 98.7161 77.7277C98.7765 77.3569 99.0423 77.0617 99.4087 76.9634C99.5405 76.9278 108.746 76.9213 108.9 76.957ZM106.182 79.6645C106.378 79.7603 106.521 79.9032 106.617 80.1001C106.7 80.2632 106.702 80.2787 106.702 80.5044C106.702 80.7233 106.698 80.7521 106.631 80.8907C106.539 81.0872 106.378 81.2482 106.182 81.3396L106.032 81.4112H103.472H100.914L100.745 81.3263C100.376 81.1456 100.184 80.7791 100.24 80.368C100.284 80.0375 100.521 79.7516 100.845 79.6332C100.957 79.5929 101.068 79.5929 103.508 79.5972L106.054 79.6019L106.182 79.6645ZM108.967 82.2691C109.408 82.4052 109.68 82.8275 109.617 83.2811C109.566 83.6472 109.253 83.978 108.885 84.0562C108.728 84.0896 102.462 84.0918 102.29 84.0583C102 84.0025 101.748 83.8128 101.618 83.5489C101.555 83.424 101.542 83.3682 101.535 83.2073C101.524 82.9704 101.562 82.821 101.685 82.6378C101.797 82.4725 101.964 82.3429 102.154 82.2781L102.302 82.2288L105.567 82.2266C108.708 82.2266 108.838 82.2288 108.967 82.2691Z" fill="black"/>
<path d="M120.042 75.0449C119.673 75.0852 119.258 75.132 119.122 75.1457L118.869 75.1724V76.1307V77.089L118.34 77.0933L117.808 77.1002L117.801 77.8976L117.797 78.6975H118.331H118.867L118.874 80.4554L118.883 82.2158L118.943 82.4393C119.139 83.1719 119.676 83.7573 120.379 84.0118C120.734 84.1414 120.976 84.1792 121.449 84.1792C121.816 84.1792 121.898 84.1727 122.052 84.1302C122.231 84.0809 122.606 83.9157 122.642 83.871C122.673 83.8332 122.256 82.4393 122.218 82.4415C122.2 82.4436 122.102 82.4616 121.999 82.4814C121.751 82.5286 121.583 82.5264 121.413 82.4728C121.096 82.372 120.938 82.16 120.88 81.7622C120.868 81.6776 120.857 80.9716 120.857 80.154V78.6975H121.393H121.93L121.925 77.8976L121.919 77.1002L121.389 77.0933L120.857 77.089V76.0281V74.9668L120.786 74.969C120.746 74.9711 120.41 75.005 120.042 75.0449Z" fill="black"/>
<path d="M156.644 77.0458C155.862 77.1351 155.172 77.4569 154.616 77.9908C154.095 78.4933 153.78 79.0229 153.619 79.6705C153.532 80.0233 153.508 80.2224 153.508 80.64C153.508 81.058 153.532 81.2567 153.619 81.6095C153.78 82.2575 154.095 82.7892 154.613 83.2871C155.295 83.9416 156.112 84.2591 157.124 84.2591C157.926 84.2591 158.585 84.0647 159.202 83.6493C159.481 83.4592 159.966 82.9721 160.149 82.6953C160.596 82.0206 160.799 81.2052 160.732 80.3542C160.658 79.3689 160.321 78.6496 159.626 77.9861C159.054 77.4411 158.389 77.1351 157.571 77.0436C157.337 77.0166 156.883 77.0188 156.644 77.0458ZM157.614 78.8083C158.255 78.9714 158.746 79.5075 158.887 80.1979C158.934 80.4233 158.934 80.8791 158.887 81.1048C158.762 81.7125 158.322 82.2373 157.772 82.4339C157.43 82.5545 156.923 82.5725 156.577 82.4717C156.083 82.3313 155.659 81.9468 155.454 81.4576C155.259 80.9953 155.255 80.3297 155.445 79.8628C155.686 79.2641 156.206 78.8508 156.827 78.7637C157.028 78.7345 157.415 78.7569 157.614 78.8083Z" fill="black"/>
<path d="M124.686 77.1915C124.208 77.2429 123.793 77.2876 123.766 77.2876L123.715 77.2897V80.7411V84.1924H124.709H125.703V81.9967V79.8029L125.808 79.6243C126.027 79.2489 126.248 79.0188 126.52 78.8827C126.668 78.8111 126.715 78.7999 126.887 78.7909C127.218 78.7755 127.602 78.8802 127.821 79.048C127.861 79.0793 127.897 79.0995 127.901 79.0969C127.923 79.0635 128.205 77.1691 128.189 77.1537C128.178 77.1425 128.031 77.1202 127.861 77.1065C127.052 77.0374 126.418 77.2386 125.817 77.7545L125.703 77.8528V77.4708V77.0889L125.631 77.091C125.591 77.0932 125.167 77.1378 124.686 77.1915Z" fill="black"/>
<path d="M132.24 77.1132C131.807 77.1578 131.398 77.2719 131.034 77.4462C130.467 77.7162 129.892 78.2591 129.575 78.8243C129.408 79.1281 129.26 79.5684 129.186 79.9928C129.147 80.2207 129.147 81.0671 129.184 81.2885C129.329 82.0949 129.622 82.6802 130.138 83.1983C130.645 83.7033 131.255 84.0137 131.992 84.1389C132.452 84.2171 133.266 84.2012 133.813 84.1029C134.563 83.9669 135.142 83.6763 135.502 83.2541L135.605 83.1356L135.033 82.5639L134.463 81.9944L134.342 82.0747C133.873 82.3875 133.346 82.5438 132.752 82.5481C132.363 82.5506 132.231 82.5236 131.943 82.3829C131.546 82.1885 131.311 81.8781 131.213 81.4181L131.199 81.3554L133.65 81.3507L136.103 81.3443L136.096 80.7902C136.089 80.0396 136.02 79.5972 135.846 79.1526C135.432 78.1161 134.615 77.408 133.565 77.1801C133.17 77.0952 132.656 77.0685 132.24 77.1132ZM132.935 78.744C133.605 78.8354 134.099 79.2959 134.103 79.8297V79.9255H132.685H131.264L131.28 79.8074C131.316 79.5057 131.412 79.3092 131.622 79.1169C131.952 78.8153 132.441 78.6749 132.935 78.744Z" fill="black"/>
<path d="M138.628 77.1915C138.15 77.2429 137.734 77.2876 137.707 77.2876L137.656 77.2897V80.7411V84.1924H138.65H139.644V81.9363V79.678L139.7 79.5707C139.785 79.4029 140.013 79.1128 140.138 79.0123C140.2 78.963 140.308 78.8939 140.377 78.8604C140.495 78.8021 140.522 78.7978 140.784 78.7999C141.027 78.7999 141.085 78.8089 141.239 78.8604C141.474 78.9429 141.594 79.0167 141.746 79.1707C141.885 79.3093 142.003 79.5325 142.07 79.7694C142.108 79.9033 142.113 80.0664 142.12 82.0525L142.126 84.1924H143.12H144.114L144.105 81.7732C144.096 79.1484 144.103 79.296 143.976 78.8982C143.748 78.2013 143.201 77.5781 142.586 77.3189C142.204 77.158 141.673 77.073 141.208 77.0979C140.652 77.1292 140.183 77.2987 139.778 77.6159L139.655 77.7142L139.649 77.4017L139.642 77.0889L139.57 77.091C139.533 77.0932 139.108 77.1378 138.628 77.1915Z" fill="black"/>
<path d="M148.309 77.1157C147.901 77.1539 147.416 77.2878 147.087 77.453C146.285 77.8598 145.678 78.7109 145.473 79.7138C145.372 80.2052 145.358 80.9404 145.439 81.4541C145.631 82.6806 146.225 83.5338 147.159 83.9269C147.865 84.2218 148.863 84.2754 149.558 84.0544C149.869 83.9561 150.383 83.6857 150.443 83.5896C150.45 83.5784 150.468 83.5673 150.481 83.5673C150.523 83.5673 150.488 84.1771 150.434 84.3805C150.34 84.7312 150.101 85.1311 149.893 85.2784C149.585 85.4972 149.196 85.6002 148.662 85.6024C148.05 85.6045 147.407 85.4303 146.891 85.12L146.654 84.9792L146.198 85.5062L145.74 86.0336L145.825 86.1208C145.928 86.2277 146.263 86.4804 146.444 86.5877C147.061 86.9538 147.847 87.1705 148.678 87.2018C149.013 87.2152 149.612 87.1684 149.916 87.1057C150.525 86.9808 151.057 86.6813 151.513 86.201C152.076 85.6092 152.391 84.8852 152.464 84.014C152.48 83.8265 152.487 82.6694 152.482 80.5181L152.476 77.3036L151.593 77.2097C151.109 77.1582 150.664 77.1092 150.606 77.1002L150.499 77.0869V77.4019V77.7169L150.349 77.596C150.016 77.3281 149.67 77.1964 149.107 77.1226C148.821 77.0869 148.638 77.0844 148.309 77.1157ZM149.254 78.7868C149.889 78.9478 150.251 79.2671 150.434 79.8254C150.481 79.9709 150.485 80.0288 150.494 80.6297C150.501 81.1682 150.496 81.3043 150.465 81.4318C150.36 81.8918 150.027 82.2425 149.525 82.4257C149.221 82.5352 149.011 82.5686 148.781 82.542C148.495 82.5064 148.256 82.439 148.041 82.3343C147.8 82.2137 147.512 81.9386 147.382 81.7043C147.161 81.3065 147.052 80.7215 147.114 80.2924C147.193 79.783 147.411 79.3697 147.735 79.1285C148.16 78.8135 148.801 78.6684 149.254 78.7868Z" fill="black"/>
<path d="M428.202 118.578C450.424 129.706 477.46 120.712 488.588 98.4894C499.715 76.267 490.721 49.2314 468.499 38.1036C446.277 26.9759 419.241 35.9699 408.113 58.1923C396.985 80.4147 405.979 107.45 428.202 118.578Z" fill="#000EDC"/>
<path d="M427.892 69.3785C427.901 68.776 427.615 68.2919 427.235 67.8533C427.178 67.791 427.13 67.7205 427.05 67.6211C427.179 67.606 427.264 67.5942 427.348 67.5855C427.939 67.5274 428.445 67.2962 428.806 66.8163C429.367 66.0736 429.555 65.2708 429.076 64.3778C428.781 63.8296 428.33 63.4315 427.789 63.1564C425.329 61.9078 422.864 60.678 420.401 59.4362C420.254 59.3623 420.2 59.4111 420.159 59.551C419.97 60.1888 420.252 60.8815 420.845 61.187C421.612 61.5797 422.385 61.9625 423.161 62.3465C423.308 62.4204 423.335 62.4929 423.26 62.6409C422.954 63.237 422.652 63.8314 422.362 64.4358C422.279 64.6091 422.194 64.621 422.033 64.5404C421.5 64.2652 420.962 64.0003 420.426 63.7318C420.355 63.6965 420.282 63.668 420.216 63.6394C419.954 63.946 419.969 64.7115 420.439 65.1113C420.724 65.3549 421.091 65.5093 421.424 65.6972C421.664 65.83 421.667 65.8232 421.547 66.0621C421.038 67.0793 420.534 68.0946 420.018 69.1081C419.942 69.2597 419.938 69.3337 420.109 69.4193C421.349 70.0317 422.584 70.6541 423.819 71.2684C424.344 71.5267 424.902 71.6589 425.489 71.6919C427.044 71.7673 427.875 70.4266 427.892 69.3785ZM424.598 63.2936C424.672 63.1455 424.754 63.1404 424.886 63.2107C425.222 63.387 425.558 63.5516 425.897 63.7211C425.9 63.7143 425.903 63.7075 425.907 63.7008C426.329 63.9375 426.765 64.1557 427.163 64.4225C427.361 64.5553 427.542 64.7637 427.643 64.979C427.974 65.6582 427.42 66.5555 426.66 66.5583C426.353 66.5607 426.022 66.5004 425.741 66.3763C425.064 66.0795 424.41 65.727 423.743 65.4015C423.616 65.3377 423.604 65.2603 423.663 65.1425C423.982 64.5226 424.294 63.9082 424.598 63.2936ZM426.202 69.783C425.932 70.1534 425.541 70.2901 425.114 70.2067C424.773 70.1414 424.445 70.0107 424.123 69.8834C423.831 69.7624 423.555 69.603 423.273 69.462C422.871 69.2607 422.467 69.0544 422.062 68.8598C421.913 68.7892 421.881 68.7101 421.96 68.5602C422.279 67.9407 422.589 67.321 422.895 66.6948C422.972 66.5399 423.049 66.5026 423.209 66.5867C424.014 67.0112 424.824 67.4208 425.63 67.8453C425.938 68.0082 426.192 68.2451 426.361 68.5526C426.6 68.9966 426.478 69.4072 426.202 69.783Z" fill="white"/>
<path d="M449.07 83.6293C448.974 83.8215 448.891 83.835 448.722 83.7375C448.434 83.5763 448.139 83.4287 447.838 83.2946C447.66 83.2139 447.632 83.1366 447.724 82.9599C448.234 81.9596 448.739 80.9579 449.232 79.9495C449.379 79.6479 449.513 79.3281 449.576 79.0016C449.7 78.3857 449.433 77.8981 448.864 77.5706C448.339 77.2702 447.685 77.3133 447.226 77.669C446.939 77.8914 446.76 78.1893 446.601 78.5061C446.08 79.5465 445.558 80.5818 445.043 81.6259C444.959 81.7943 444.883 81.8197 444.723 81.7307C444.409 81.561 444.086 81.4035 443.764 81.2508C443.635 81.1902 443.597 81.1331 443.669 80.9882C445.025 78.2893 446.377 75.5888 447.728 72.8828C447.799 72.7415 447.871 72.7398 447.997 72.8068C448.318 72.9764 448.642 73.1427 448.972 73.2951C449.126 73.3639 449.148 73.438 449.068 73.5878C448.594 74.5173 448.133 75.4484 447.667 76.3777L447.561 76.5898C447.576 76.6101 447.593 76.627 447.609 76.6438C447.7 76.6047 447.791 76.5745 447.88 76.5304C448.666 76.1659 449.417 76.2475 450.158 76.6773C451.278 77.3268 451.455 78.4388 451.125 79.415C451.06 79.614 450.978 79.8089 450.886 79.9943C450.277 81.2098 449.665 82.4156 449.07 83.6293Z" fill="white"/>
<path d="M461.647 86.082C462.368 84.3751 461.717 82.4358 459.882 81.5384C458.074 80.6709 455.866 81.3887 455.019 83.4413C454.313 85.1516 454.971 87.2118 457.037 88.057C458.887 88.8151 460.849 87.9696 461.647 86.082ZM458.402 86.9548C457.303 87.0403 456.324 86.175 456.248 85.0716C456.18 84.1024 456.717 83.1544 457.571 82.7225C458.214 82.4001 459.167 82.5486 459.712 83.0243C460.539 83.7416 460.594 84.8301 460.15 85.7409C459.793 86.3958 459.241 86.8862 458.402 86.9548Z" fill="white"/>
<path d="M478.298 93.1349C478.662 90.6005 476.175 89.0559 474.232 89.7212C472.88 90.1859 472.094 91.1865 471.754 92.5446C471.559 93.3107 471.614 94.0795 471.991 94.7907C472.591 95.9289 473.555 96.5638 474.82 96.7336C475.417 96.8135 475.998 96.6917 476.572 96.4319C476.457 96.1343 476.332 95.8566 476.24 95.5708C476.177 95.3789 476.088 95.3473 475.899 95.3996C475.205 95.5871 474.553 95.5342 473.933 95.1145C473.255 94.6528 472.925 93.8895 473.121 93.078C473.194 92.7734 473.194 92.7731 473.472 92.9125C474.786 93.5702 476.101 94.2248 477.411 94.8894C477.582 94.9749 477.668 94.9547 477.756 94.7796C478.02 94.2594 478.213 93.7154 478.298 93.1349ZM476.518 93.3428C476.077 93.1092 475.628 92.8929 475.182 92.6697C474.73 92.4432 474.278 92.2166 473.825 91.9901C473.735 91.9448 473.629 91.9046 473.719 91.7683C474.096 91.1991 474.818 90.7605 475.499 90.8486C476.306 90.9538 476.921 91.641 476.919 92.4572C476.919 92.7093 476.851 92.962 476.81 93.2109C476.783 93.4078 476.69 93.4332 476.518 93.3428Z" fill="white"/>
<path d="M434.324 72.2065C434.474 71.8984 434.614 71.5771 434.704 71.2472C434.939 70.4004 434.812 69.608 434.176 68.978C433.215 68.0336 432.015 67.6181 430.687 67.5508C430.645 67.5507 430.567 67.605 430.561 67.6435C430.498 68.0121 430.448 68.3875 430.393 68.7475C430.428 68.7695 430.44 68.7794 430.45 68.7844C430.564 68.7996 430.678 68.806 430.792 68.8209C431.47 68.9077 432.112 69.09 432.671 69.4964C433.34 69.9868 433.496 70.6463 433.111 71.3803C433.044 71.5067 432.985 71.5152 432.883 71.4177C432.217 70.781 431.428 70.3649 430.546 70.1001C429.77 69.8673 428.915 70.0755 428.395 70.7037C427.855 71.3556 427.628 72.0928 427.992 72.9066C428.423 73.8634 429.759 74.6761 430.906 74.4288C431.141 74.3782 431.371 74.3206 431.639 74.253C431.594 74.3607 431.563 74.4381 431.525 74.5156C431.283 75.0056 431.28 75.004 431.776 75.2523L432.336 75.5325C432.587 75.6584 432.587 75.6584 432.71 75.4125C433.256 74.3465 433.798 73.2825 434.324 72.2065ZM431.255 73.5972C430.671 73.6502 429.664 73.3016 429.379 72.6406C429.213 72.2588 429.307 71.9222 429.529 71.6123C429.776 71.2688 430.137 71.142 430.545 71.2072C430.853 71.2606 431.15 71.3713 431.492 71.4669C431.823 71.7339 432.178 72.0127 432.522 72.2982C432.569 72.3385 432.6 72.4513 432.582 72.5052C432.338 73.1078 431.943 73.5375 431.255 73.5972Z" fill="white"/>
<path d="M443.574 79.9012C442.395 80.4731 441.064 80.3035 439.982 79.4498C438.666 78.4119 438.383 76.8004 438.945 75.4183C439.629 73.7432 441.142 72.9554 442.667 73.1417C444.046 73.3097 445.327 74.3175 445.635 75.7189C445.22 75.8775 444.801 76.0381 444.381 76.1982C444.249 75.9261 444.135 75.6668 443.999 75.4215C443.514 74.5472 442.416 74.2374 441.521 74.6777C440.535 75.1654 440.015 76.2531 440.207 77.3345C440.371 78.2463 441.339 78.9669 442.293 78.8765C442.54 78.8526 442.784 78.785 443.03 78.7526C443.092 78.7459 443.201 78.7791 443.218 78.8213C443.343 79.183 443.456 79.5429 443.574 79.9012Z" fill="white"/>
<path d="M470.565 93.4306C469.962 93.6553 469.375 93.8242 468.761 93.7274C467.312 93.4905 466.284 92.706 465.809 91.2934C465.456 90.2406 465.654 89.2274 466.241 88.3046C467.01 87.1055 468.123 86.5301 469.551 86.6427C470.816 86.7454 472.171 87.6553 472.58 89.0817C472.593 89.1306 472.562 89.2417 472.525 89.2566C472.141 89.4139 471.75 89.559 471.352 89.7093C471.225 89.4436 471.116 89.1912 470.985 88.9529C470.445 87.9541 469.032 87.6799 468.147 88.3998C467.382 89.0232 467.026 89.8177 467.178 90.8121C467.322 91.7556 468.333 92.5234 469.281 92.4043C469.528 92.3721 469.77 92.3078 470.015 92.2703C470.074 92.262 470.177 92.3055 470.192 92.3509C470.322 92.6941 470.434 93.0488 470.565 93.4306Z" fill="white"/>
<path d="M454.915 79.0739C454.842 79.1935 454.876 79.269 455.001 79.3278C455.412 79.5292 455.821 79.7423 456.233 79.9402C456.382 80.0108 456.419 80.0881 456.336 80.2363C456.205 80.4736 456.087 80.7177 455.974 80.9603C455.906 81.1117 455.821 81.1405 455.675 81.0635C455.293 80.8636 454.906 80.6739 454.519 80.4845C454.455 80.4526 454.383 80.429 454.296 80.3939L454.173 80.6398C453.429 82.1247 452.68 83.6114 451.944 85.0997C451.864 85.2581 451.8 85.2933 451.64 85.2043C451.333 85.0383 451.02 84.8775 450.701 84.7345C450.53 84.6574 450.512 84.5769 450.595 84.4118C451.333 82.9537 452.062 81.4907 452.795 80.0257C452.959 79.699 452.959 79.699 452.637 79.5378C452.188 79.313 452.188 79.313 452.412 78.8652L452.753 78.185C452.964 78.2908 453.155 78.378 453.335 78.4803C453.475 78.5591 453.541 78.5204 453.617 78.3857C453.824 78.0303 454.011 77.6566 454.272 77.3452C454.79 76.7286 455.581 76.5726 456.308 76.9283C456.708 77.1248 457.082 77.3834 457.465 77.6134C457.584 77.6854 457.587 77.7796 457.523 77.9077C457.36 78.2176 457.208 78.5288 457.039 78.8655C456.899 78.7533 456.791 78.6489 456.668 78.5699C456.485 78.4576 456.301 78.3399 456.101 78.2614C455.795 78.1373 455.454 78.2488 455.24 78.5335C455.117 78.7034 455.023 78.892 454.915 79.0739Z" fill="white"/>
<path d="M437.81 72.3819C437.349 73.3181 436.881 74.2458 436.419 75.1768C436.306 75.4024 436.216 75.6398 436.315 75.8956C436.445 76.2301 436.745 76.3677 437.051 76.475C437.244 76.5422 437.454 76.567 437.683 76.6189C437.511 76.9623 437.348 77.2975 437.172 77.6308C437.156 77.6643 437.098 77.6864 437.055 77.6899C436.345 77.785 435.196 77.1925 434.836 76.579C434.537 76.0629 434.594 75.5394 434.829 75.046C435.35 73.9381 435.911 72.8507 436.456 71.7546C436.582 71.5019 436.582 71.5019 436.333 71.3728C435.813 71.1043 435.813 71.1043 436.078 70.5839C436.157 70.4258 436.238 70.2723 436.314 70.1126C436.371 69.9896 436.44 69.9524 436.568 70.0246C436.698 70.0985 436.836 70.1504 436.965 70.2278C437.114 70.315 437.201 70.2914 437.279 70.1278C437.483 69.6953 437.709 69.2693 437.916 68.8382C437.985 68.6917 438.053 68.6496 438.208 68.732C438.528 68.9048 438.855 69.0643 439.183 69.2203C439.323 69.2856 439.334 69.3546 439.268 69.4859C439.041 69.9236 438.83 70.3699 438.602 70.8076C438.528 70.9475 438.553 71.0232 438.696 71.0902C439.115 71.2915 439.525 71.5099 439.944 71.7112C440.08 71.7748 440.128 71.8369 440.046 71.9852C439.899 72.2528 439.762 72.5257 439.637 72.8002C439.572 72.94 439.498 72.9534 439.367 72.8879C438.96 72.68 438.544 72.4803 438.139 72.2689C437.978 72.1883 437.894 72.2135 437.81 72.3819Z" fill="white"/>
<path d="M466.752 86.6144C466.693 86.7323 466.633 86.744 466.514 86.6972C465.892 86.4322 465.268 86.364 464.642 86.6861C464.178 86.9257 463.811 87.2813 463.565 87.731C463.115 88.5541 462.697 89.3978 462.277 90.2363C462.188 90.4146 462.111 90.4602 461.928 90.3562C461.635 90.1884 461.331 90.0406 461.023 89.9031C460.852 89.826 460.834 89.7452 460.917 89.5801C461.637 88.1591 462.348 86.7297 463.061 85.3053C463.297 84.8337 463.54 84.3658 463.766 83.8892C463.839 83.7359 463.916 83.7158 464.06 83.7964C464.373 83.9658 464.695 84.1269 465.019 84.2764C465.176 84.3467 465.189 84.4291 465.11 84.5706C464.946 84.8804 464.792 85.1986 464.638 85.5134C464.616 85.5572 464.606 85.611 464.585 85.6852C464.878 85.52 465.126 85.3579 465.393 85.2347C466.002 84.9578 466.617 84.9421 467.229 85.244C467.353 85.3061 467.383 85.3632 467.319 85.4913C467.124 85.8651 466.936 86.2388 466.752 86.6144Z" fill="white"/>
<path d="M1264.27 161.344C1289.12 161.344 1309.27 141.197 1309.27 116.344C1309.27 91.4909 1289.12 71.3438 1264.27 71.3438C1239.42 71.3438 1219.27 91.4909 1219.27 116.344C1219.27 141.197 1239.42 161.344 1264.27 161.344Z" fill="#31FF3F"/>
<path d="M1242.09 108.468C1241.56 108.502 1240.9 108.556 1240.44 108.6C1235.23 109.128 1232.01 110.468 1230.98 112.532C1230.6 113.309 1230.52 114.147 1230.76 115.074C1231.19 116.787 1232.7 118.704 1234.91 120.362C1235.6 120.878 1236.28 121.309 1237.43 121.952C1239.8 123.29 1241.37 123.947 1242.72 124.159C1243.1 124.22 1243.73 124.242 1244.07 124.206C1245.81 124.025 1247.29 122.875 1248.89 120.473C1249.14 120.089 1249.16 120.056 1249.43 119.522C1250.23 117.916 1250.74 116.278 1250.9 114.828C1250.94 114.413 1250.94 113.53 1250.9 113.169C1250.78 112.21 1250.42 111.341 1249.88 110.68C1249.69 110.446 1249.32 110.095 1249.06 109.903C1248.14 109.219 1246.84 108.756 1245.29 108.567C1244.63 108.484 1244.39 108.473 1243.32 108.466C1242.72 108.464 1242.17 108.464 1242.09 108.468ZM1245.74 112.635C1246.21 112.742 1246.53 113.198 1246.46 113.667C1246.42 113.93 1246.24 114.203 1246.01 114.337C1245.78 114.471 1246.08 114.464 1241.01 114.464C1235.94 114.464 1236.24 114.471 1236.01 114.337C1235.69 114.151 1235.5 113.758 1235.56 113.405C1235.62 113.035 1235.89 112.739 1236.25 112.641C1236.38 112.606 1245.59 112.599 1245.74 112.635ZM1243.03 115.342C1243.22 115.438 1243.37 115.581 1243.46 115.778C1243.54 115.941 1243.55 115.956 1243.55 116.182C1243.55 116.401 1243.54 116.43 1243.47 116.568C1243.38 116.765 1243.22 116.926 1243.03 117.017L1242.88 117.089H1240.32H1237.76L1237.59 117.004C1237.22 116.823 1237.03 116.457 1237.08 116.046C1237.13 115.715 1237.36 115.429 1237.69 115.311C1237.8 115.271 1237.91 115.271 1240.35 115.275L1242.9 115.28L1243.03 115.342ZM1245.81 117.947C1246.25 118.083 1246.52 118.505 1246.46 118.959C1246.41 119.325 1246.1 119.656 1245.73 119.734C1245.57 119.767 1239.31 119.77 1239.13 119.736C1238.84 119.68 1238.59 119.491 1238.46 119.227C1238.4 119.102 1238.39 119.046 1238.38 118.885C1238.37 118.648 1238.41 118.499 1238.53 118.316C1238.64 118.15 1238.81 118.021 1239 117.956L1239.15 117.907L1242.41 117.904C1245.55 117.904 1245.68 117.907 1245.81 117.947Z" fill="black"/>
<path d="M1256.89 110.723C1256.52 110.763 1256.1 110.81 1255.97 110.823L1255.71 110.85V111.808V112.767L1255.18 112.771L1254.65 112.778L1254.65 113.575L1254.64 114.375H1255.17H1255.71L1255.72 116.133L1255.73 117.893L1255.79 118.117C1255.98 118.85 1256.52 119.435 1257.22 119.69C1257.58 119.819 1257.82 119.857 1258.29 119.857C1258.66 119.857 1258.74 119.85 1258.9 119.808C1259.07 119.759 1259.45 119.593 1259.49 119.549C1259.52 119.511 1259.1 118.117 1259.06 118.119C1259.04 118.121 1258.95 118.139 1258.84 118.159C1258.59 118.206 1258.43 118.204 1258.26 118.151C1257.94 118.05 1257.78 117.838 1257.72 117.44C1257.71 117.355 1257.7 116.649 1257.7 115.832V114.375H1258.24H1258.77L1258.77 113.575L1258.76 112.778L1258.23 112.771L1257.7 112.767V111.706V110.645L1257.63 110.647C1257.59 110.649 1257.25 110.683 1256.89 110.723Z" fill="black"/>
<path d="M1293.49 112.724C1292.71 112.813 1292.02 113.135 1291.46 113.669C1290.94 114.171 1290.62 114.701 1290.46 115.348C1290.38 115.701 1290.35 115.9 1290.35 116.318C1290.35 116.736 1290.38 116.934 1290.46 117.287C1290.62 117.935 1290.94 118.467 1291.46 118.965C1292.14 119.619 1292.96 119.937 1293.97 119.937C1294.77 119.937 1295.43 119.742 1296.05 119.327C1296.33 119.137 1296.81 118.65 1296.99 118.373C1297.44 117.698 1297.64 116.883 1297.58 116.032C1297.5 115.047 1297.16 114.327 1296.47 113.664C1295.9 113.119 1295.23 112.813 1294.41 112.721C1294.18 112.694 1293.73 112.697 1293.49 112.724ZM1294.46 114.486C1295.1 114.649 1295.59 115.185 1295.73 115.876C1295.78 116.101 1295.78 116.557 1295.73 116.783C1295.61 117.39 1295.17 117.915 1294.62 118.112C1294.27 118.232 1293.77 118.25 1293.42 118.149C1292.93 118.009 1292.5 117.625 1292.3 117.135C1292.1 116.673 1292.1 116.007 1292.29 115.541C1292.53 114.942 1293.05 114.529 1293.67 114.441C1293.87 114.412 1294.26 114.435 1294.46 114.486Z" fill="black"/>
<path d="M1261.53 112.869C1261.05 112.921 1260.64 112.965 1260.61 112.965L1260.56 112.967V116.419V119.87H1261.55H1262.55V117.674V115.481L1262.65 115.302C1262.87 114.927 1263.09 114.697 1263.36 114.56C1263.51 114.489 1263.56 114.478 1263.73 114.469C1264.06 114.453 1264.45 114.558 1264.66 114.726C1264.7 114.757 1264.74 114.777 1264.74 114.775C1264.77 114.741 1265.05 112.847 1265.03 112.831C1265.02 112.82 1264.87 112.798 1264.7 112.784C1263.9 112.715 1263.26 112.916 1262.66 113.432L1262.55 113.531V113.149V112.767L1262.48 112.769C1262.43 112.771 1262.01 112.816 1261.53 112.869Z" fill="black"/>
<path d="M1269.08 112.791C1268.65 112.836 1268.24 112.95 1267.88 113.124C1267.31 113.394 1266.74 113.937 1266.42 114.502C1266.25 114.806 1266.1 115.246 1266.03 115.671C1265.99 115.898 1265.99 116.745 1266.03 116.966C1266.17 117.773 1266.47 118.358 1266.98 118.876C1267.49 119.381 1268.1 119.691 1268.84 119.817C1269.3 119.895 1270.11 119.879 1270.66 119.781C1271.41 119.645 1271.99 119.354 1272.35 118.932L1272.45 118.813L1271.88 118.242L1271.31 117.672L1271.19 117.752C1270.72 118.065 1270.19 118.222 1269.6 118.226C1269.21 118.228 1269.08 118.201 1268.79 118.061C1268.39 117.866 1268.15 117.556 1268.06 117.096L1268.04 117.033L1270.49 117.028L1272.95 117.022L1272.94 116.468C1272.93 115.717 1272.86 115.275 1272.69 114.83C1272.28 113.794 1271.46 113.086 1270.41 112.858C1270.01 112.773 1269.5 112.746 1269.08 112.791ZM1269.78 114.422C1270.45 114.513 1270.94 114.974 1270.95 115.507V115.603H1269.53H1268.11L1268.12 115.485C1268.16 115.183 1268.26 114.987 1268.47 114.795C1268.8 114.493 1269.29 114.353 1269.78 114.422Z" fill="black"/>
<path d="M1275.47 112.869C1274.99 112.921 1274.58 112.965 1274.55 112.965L1274.5 112.967V116.419V119.87H1275.49H1276.49V117.614V115.356L1276.54 115.248C1276.63 115.081 1276.86 114.791 1276.98 114.69C1277.04 114.641 1277.15 114.572 1277.22 114.538C1277.34 114.48 1277.37 114.476 1277.63 114.478C1277.87 114.478 1277.93 114.487 1278.08 114.538C1278.32 114.621 1278.44 114.694 1278.59 114.848C1278.73 114.987 1278.85 115.21 1278.91 115.447C1278.95 115.581 1278.96 115.744 1278.96 117.73L1278.97 119.87H1279.96H1280.96L1280.95 117.451C1280.94 114.826 1280.95 114.974 1280.82 114.576C1280.59 113.879 1280.04 113.256 1279.43 112.997C1279.05 112.836 1278.52 112.751 1278.05 112.776C1277.5 112.807 1277.03 112.976 1276.62 113.294L1276.5 113.392L1276.49 113.079L1276.49 112.767L1276.41 112.769C1276.38 112.771 1275.95 112.816 1275.47 112.869Z" fill="black"/>
<path d="M1285.15 112.793C1284.74 112.832 1284.26 112.966 1283.93 113.131C1283.13 113.538 1282.52 114.389 1282.32 115.392C1282.22 115.883 1282.2 116.618 1282.28 117.132C1282.47 118.358 1283.07 119.212 1284 119.605C1284.71 119.899 1285.71 119.953 1286.4 119.732C1286.71 119.634 1287.23 119.363 1287.29 119.267C1287.29 119.256 1287.31 119.245 1287.32 119.245C1287.37 119.245 1287.33 119.855 1287.28 120.058C1287.18 120.409 1286.94 120.809 1286.74 120.956C1286.43 121.175 1286.04 121.278 1285.51 121.28C1284.89 121.282 1284.25 121.108 1283.73 120.798L1283.5 120.657L1283.04 121.184L1282.58 121.711L1282.67 121.798C1282.77 121.905 1283.11 122.158 1283.29 122.265C1283.9 122.632 1284.69 122.848 1285.52 122.88C1285.86 122.893 1286.46 122.846 1286.76 122.783C1287.37 122.659 1287.9 122.359 1288.36 121.879C1288.92 121.287 1289.23 120.563 1289.31 119.692C1289.32 119.504 1289.33 118.347 1289.33 116.196L1289.32 112.981L1288.44 112.887C1287.95 112.836 1287.51 112.787 1287.45 112.778L1287.34 112.765V113.08V113.395L1287.19 113.274C1286.86 113.006 1286.51 112.874 1285.95 112.8C1285.66 112.765 1285.48 112.762 1285.15 112.793ZM1286.1 114.465C1286.73 114.625 1287.09 114.945 1287.28 115.503C1287.32 115.649 1287.33 115.707 1287.34 116.307C1287.34 116.846 1287.34 116.982 1287.31 117.109C1287.2 117.57 1286.87 117.92 1286.37 118.103C1286.06 118.213 1285.85 118.246 1285.62 118.22C1285.34 118.184 1285.1 118.117 1284.89 118.012C1284.64 117.891 1284.36 117.616 1284.23 117.382C1284.01 116.984 1283.9 116.399 1283.96 115.97C1284.04 115.461 1284.26 115.047 1284.58 114.806C1285 114.491 1285.64 114.346 1286.1 114.465Z" fill="black"/>
<path d="M1391.37 161.317C1416.22 161.317 1436.37 141.17 1436.37 116.317C1436.37 91.4646 1416.22 71.3174 1391.37 71.3174C1366.52 71.3174 1346.37 91.4646 1346.37 116.317C1346.37 141.17 1366.52 161.317 1391.37 161.317Z" fill="#FF00FF"/>
<path d="M1415.13 116.675C1414.49 116.503 1413.88 116.915 1413.65 117.595C1413.45 118.225 1413.23 118.859 1412.94 119.455C1412.63 120.109 1412.18 120.675 1411.56 121.072C1411.2 121.301 1411.09 121.258 1410.97 120.847C1410.77 120.176 1410.84 119.499 1410.99 118.835C1411.27 117.541 1411.58 116.257 1411.86 114.963C1411.91 114.738 1412 114.657 1412.23 114.664C1412.74 114.677 1413.24 114.664 1413.75 114.653C1414.47 114.64 1415 114.125 1415 113.444C1414.99 112.78 1414.44 112.244 1413.74 112.231C1413.35 112.224 1412.96 112.231 1412.52 112.231C1412.57 112.022 1412.61 111.813 1412.66 111.608C1412.81 110.961 1412.98 110.314 1413.13 109.663C1413.27 109.064 1413.04 108.515 1412.56 108.228C1412.13 107.972 1411.52 108.013 1411.15 108.397C1410.96 108.595 1410.8 108.875 1410.74 109.145C1410.1 111.871 1409.47 114.603 1408.85 117.332C1408.61 118.387 1408.28 119.408 1407.64 120.291C1407.39 120.648 1407.06 120.975 1406.72 121.254C1406.29 121.612 1406.11 121.524 1405.99 120.961C1405.85 120.284 1405.92 119.613 1406.08 118.946C1406.49 117.265 1406.88 115.584 1407.32 113.909C1407.56 112.972 1406.92 112.204 1406.02 112.241C1405.13 112.281 1404.23 112.255 1403.34 112.258H1402.95C1403.26 110.88 1403.57 109.546 1403.87 108.258C1404.57 108.373 1405.24 108.511 1405.91 108.582C1406.55 108.649 1407.18 108.562 1407.78 108.333C1409.16 107.807 1410 106.479 1409.91 104.963C1409.83 103.589 1408.85 102.416 1407.48 102.103C1406.32 101.836 1405.26 102.167 1404.28 102.783C1403.66 103.178 1403.15 103.693 1402.74 104.306C1402.68 104.38 1402.63 104.454 1402.53 104.596C1402.26 104.192 1402 103.835 1401.77 103.454C1401.55 103.087 1401.25 102.864 1400.83 102.82C1400.38 102.777 1400.01 102.932 1399.76 103.322C1399.5 103.727 1399.5 104.148 1399.73 104.566C1400.21 105.408 1400.81 106.149 1401.54 106.779C1401.71 106.928 1401.76 107.056 1401.7 107.285C1401.33 108.845 1400.97 110.408 1400.61 111.971C1400.59 112.052 1400.57 112.13 1400.54 112.241C1399.71 112.197 1399.07 112.457 1398.95 113.383C1398.87 113.966 1399.23 114.394 1399.98 114.687C1399.65 115.87 1399.53 117.117 1398.99 118.246C1398.39 119.509 1397.46 120.452 1396.14 120.944C1395.07 121.342 1394.04 121.271 1393.13 120.506C1392.92 120.338 1392.77 120.109 1392.57 119.873C1392.7 119.832 1392.77 119.809 1392.83 119.788C1395.39 119.084 1397.2 117.565 1397.89 114.923C1398.17 113.838 1397.9 112.848 1397.05 112.076C1396.35 111.439 1395.52 111.341 1394.63 111.564C1393.06 111.958 1391.97 112.979 1391.14 114.31C1390.45 115.432 1390.01 116.641 1389.94 117.979C1389.92 118.256 1389.8 118.549 1389.65 118.795C1389.18 119.63 1388.48 120.247 1387.64 120.701C1387.53 120.762 1387.39 120.789 1387.24 120.843C1387.14 120.304 1387.2 119.809 1387.31 119.327C1387.57 118.222 1387.85 117.123 1388.11 116.018C1388.28 115.284 1388.38 114.536 1388.24 113.784C1387.94 112.261 1386.46 111.372 1384.98 111.82C1384.59 111.938 1384.23 112.133 1383.85 112.275C1383.75 112.312 1383.59 112.315 1383.5 112.261C1382.74 111.796 1381.94 112.079 1381.61 112.928C1381.24 113.899 1380.69 114.748 1379.85 115.381C1379.76 115.449 1379.67 115.506 1379.5 115.614C1379.58 115.284 1379.64 115.021 1379.7 114.758C1380.14 112.915 1380.44 111.055 1380.41 109.158C1380.39 107.979 1380.18 106.837 1379.59 105.792C1378.56 103.973 1376.65 103.218 1374.57 103.801C1372.81 104.289 1371.44 105.368 1370.29 106.739C1368.68 108.653 1367.74 110.897 1367.22 113.326C1367.04 114.169 1366.96 115.034 1366.83 115.887C1366.81 115.978 1366.79 116.065 1366.77 116.156V117.909C1366.88 118.512 1366.95 119.125 1367.09 119.718C1367.4 121.032 1367.98 122.215 1368.96 123.154C1370.06 124.202 1371.34 124.822 1372.9 124.671C1374.07 124.556 1375.02 123.997 1375.86 123.212C1376.79 122.353 1377.43 121.298 1377.92 120.149C1378.14 119.634 1378.33 119.101 1378.55 118.589C1378.61 118.451 1378.73 118.313 1378.86 118.235C1379.4 117.905 1379.97 117.599 1380.57 117.258C1380.44 117.797 1380.32 118.303 1380.2 118.805C1379.97 119.775 1379.73 120.749 1379.5 121.719C1379.36 122.322 1379.54 122.821 1379.99 123.127C1380.38 123.39 1380.96 123.414 1381.33 123.097C1381.55 122.909 1381.76 122.626 1381.83 122.346C1382.18 121.049 1382.46 119.734 1382.79 118.434C1383.11 117.174 1383.59 115.974 1384.39 114.937C1384.62 114.643 1384.9 114.387 1385.21 114.179C1385.54 113.943 1385.88 114.094 1385.89 114.509C1385.91 114.97 1385.84 115.442 1385.74 115.894C1385.49 117.032 1385.16 118.154 1384.96 119.303C1384.85 119.917 1384.84 120.58 1384.93 121.197C1385.17 122.673 1386.52 123.464 1388.04 123.084C1388.98 122.845 1389.75 122.302 1390.41 121.605C1390.48 121.531 1390.54 121.45 1390.62 121.352C1391.49 122.572 1392.61 123.326 1394.06 123.502C1395.45 123.67 1396.79 123.468 1398.06 122.7C1398.05 122.834 1398.05 122.922 1398.03 123.003C1397.57 124.971 1397.11 126.938 1396.65 128.903C1396.44 129.806 1396.63 130.227 1397.43 130.624H1397.99C1398.56 130.432 1398.82 130.015 1398.95 129.438C1400.06 124.627 1401.18 119.822 1402.29 115.014C1402.35 114.758 1402.44 114.66 1402.72 114.67C1403.32 114.694 1403.92 114.677 1404.57 114.677C1404.46 115.142 1404.35 115.56 1404.27 115.984C1404.01 117.258 1403.73 118.532 1403.53 119.815C1403.4 120.604 1403.5 121.399 1403.79 122.154C1404.36 123.643 1405.9 124.331 1407.35 123.68C1407.87 123.448 1408.31 123.043 1408.78 122.713C1408.87 122.649 1408.95 122.558 1409.04 122.474C1409.08 122.518 1409.11 122.545 1409.13 122.575C1409.98 123.684 1411.14 123.973 1412.42 123.387C1413.45 122.912 1414.17 122.107 1414.77 121.173C1415.37 120.237 1415.8 119.223 1416.01 118.127C1416.02 118.077 1416.05 118.03 1416.07 117.982V117.669C1415.92 117.177 1415.64 116.813 1415.13 116.675ZM1406.6 104.337C1407.11 104.273 1407.52 104.572 1407.6 105.021C1407.69 105.516 1407.39 106.035 1406.89 106.193C1406.34 106.365 1405.78 106.301 1405.23 106.183C1404.98 106.129 1404.74 106.038 1404.43 105.947C1404.93 105.037 1405.61 104.458 1406.6 104.337ZM1377.97 109.401C1377.94 111.331 1377.56 113.195 1376.67 114.916C1376.37 115.51 1375.95 116.059 1375.52 116.574C1375.3 116.844 1374.96 117.042 1374.64 117.194C1374.06 117.47 1373.75 117.383 1373.31 116.918C1372.99 116.581 1372.61 116.379 1372.14 116.51C1371.64 116.648 1371.29 116.978 1371.2 117.491C1371.16 117.743 1371.22 118.063 1371.35 118.282C1372.13 119.573 1373.58 120.075 1375.16 119.634C1375.26 119.603 1375.37 119.576 1375.52 119.533C1375.01 120.564 1374.41 121.443 1373.42 121.982C1372.78 122.332 1372.13 122.336 1371.48 122.006C1370.4 121.453 1369.85 120.503 1369.52 119.384C1369.15 118.1 1369.16 116.79 1369.33 115.476C1369.59 113.518 1370.1 111.638 1371.08 109.909C1371.77 108.69 1372.63 107.615 1373.79 106.82C1374.39 106.412 1375.04 106.109 1375.78 106.072C1376.61 106.028 1377.19 106.409 1377.55 107.143C1377.9 107.858 1377.98 108.629 1377.97 109.401ZM1394.87 114.061C1395.05 113.976 1395.27 113.996 1395.48 113.966C1395.48 114.175 1395.54 114.397 1395.48 114.59C1395.16 115.752 1393.75 117.039 1392.45 117.346C1392.89 115.934 1393.51 114.718 1394.87 114.061Z" fill="black"/>
<path d="M1408.16 110.517C1408.16 111.18 1407.65 111.713 1407.02 111.716C1406.38 111.716 1405.86 111.164 1405.87 110.496C1405.88 109.833 1406.39 109.314 1407.03 109.317C1407.66 109.321 1408.16 109.849 1408.16 110.517Z" fill="black"/>
<path d="M532.059 90C556.911 90 577.059 69.8528 577.059 45C577.059 20.1472 556.911 0 532.059 0C507.206 0 487.059 20.1472 487.059 45C487.059 69.8528 507.206 90 532.059 90Z" fill="#F91C0E"/>
<path d="M556.275 38.8438C555.871 38.8441 555.544 39.1714 555.543 39.5756V39.6012C555.543 40.0058 555.871 40.3338 556.275 40.3338C556.68 40.3338 557.008 40.0058 557.008 39.6012V39.5756C557.007 39.1714 556.679 38.8441 556.275 38.8438Z" fill="black"/>
<path d="M530.785 41.1762C530.339 41.1687 529.897 41.2576 529.49 41.4376C529.127 41.5999 528.803 41.8365 528.538 42.132C528.281 42.4276 528.083 42.7699 527.955 43.14C527.819 43.5216 527.75 43.9237 527.75 44.3287C527.749 44.7327 527.818 45.1337 527.955 45.5135C528.084 45.8818 528.282 46.2216 528.538 46.5157C528.804 46.8099 529.128 47.0449 529.49 47.2059C529.897 47.3859 530.339 47.4751 530.785 47.4676C531.148 47.4705 531.51 47.4057 531.85 47.2761C532.154 47.1637 532.429 46.9859 532.656 46.7555L532.718 46.6914V47.2995H534.015V41.3436H532.718V41.9535L532.656 41.8894C532.428 41.6597 532.153 41.4826 531.85 41.3699C531.51 41.2396 531.149 41.1741 530.785 41.1762ZM532.612 43.4755C532.822 44.0249 532.822 44.6326 532.612 45.1819C532.515 45.4149 532.369 45.624 532.183 45.795C532.006 45.9549 531.799 46.0773 531.573 46.1554C531.349 46.2328 531.114 46.2724 530.877 46.2724C530.621 46.2753 530.366 46.2213 530.133 46.114C529.915 46.0121 529.718 45.8692 529.554 45.6928C529.389 45.5131 529.262 45.3029 529.178 45.0743C529.091 44.8345 529.046 44.5811 529.047 44.3259C529.047 44.0688 529.091 43.8132 529.178 43.5713C529.261 43.3402 529.388 43.1274 529.554 42.9463C529.718 42.7696 529.914 42.6267 530.133 42.5248C530.365 42.4193 530.618 42.3664 530.873 42.3696C531.11 42.3693 531.345 42.4089 531.569 42.4863C531.796 42.5651 532.005 42.6904 532.182 42.8545C532.367 43.0291 532.514 43.2408 532.612 43.4755Z" fill="black"/>
<path d="M536.324 39.834H535.027V45.4644C535.027 46.0195 535.214 46.4688 535.584 46.7996C535.953 47.1305 536.517 47.3004 537.263 47.3004H538.209V46.1718H537.275C536.643 46.1718 536.323 45.8553 536.323 45.2322V42.4728H538.207V41.3435H536.324V39.834Z" fill="black"/>
<path d="M541.65 41.1762C541.204 41.1687 540.762 41.2576 540.354 41.4376C539.992 41.6003 539.669 41.8368 539.405 42.132C539.146 42.4276 538.947 42.7696 538.817 43.14C538.682 43.5216 538.613 43.9237 538.613 44.3287C538.613 44.7316 538.682 45.1315 538.817 45.5106C538.948 45.8789 539.147 46.2191 539.405 46.5129C539.669 46.8077 539.993 47.0439 540.354 47.2059C540.762 47.3859 541.204 47.4751 541.65 47.4676C542.013 47.4705 542.374 47.4057 542.714 47.2761C543.018 47.1634 543.293 46.9855 543.521 46.7555L543.58 46.6914V47.2995H544.878V41.3436H543.583V41.9535L543.524 41.8894C543.295 41.6593 543.019 41.4819 542.714 41.3699C542.375 41.2399 542.013 41.1741 541.65 41.1762ZM543.478 43.4755C543.688 44.0249 543.688 44.6326 543.478 45.1819C543.38 45.4149 543.235 45.624 543.049 45.795C542.871 45.9556 542.663 46.0787 542.436 46.1572C542.213 46.2346 541.977 46.2742 541.741 46.2742C541.484 46.2771 541.229 46.2231 540.996 46.1158C540.778 46.0139 540.581 45.871 540.417 45.6946C540.252 45.5149 540.125 45.3047 540.042 45.0757C539.954 44.8363 539.91 44.5829 539.91 44.3277C539.91 44.0706 539.954 43.815 540.041 43.5731C540.123 43.3416 540.251 43.1292 540.417 42.9481C540.581 42.7714 540.778 42.6285 540.996 42.5266C541.229 42.4193 541.484 42.3653 541.741 42.3685C541.977 42.3682 542.213 42.4078 542.436 42.4852C542.664 42.5637 542.873 42.6893 543.049 42.8535C543.234 43.0284 543.38 43.2405 543.478 43.4755Z" fill="black"/>
<path d="M556.93 41.3438H555.633V47.3007H556.93V41.3438Z" fill="black"/>
<path d="M564.709 38.8438C564.305 38.8441 563.977 39.1714 563.977 39.5756V39.6012C563.977 40.0058 564.305 40.3338 564.709 40.3338C565.113 40.3338 565.441 40.0058 565.441 39.6012V39.5756C565.441 39.1714 565.113 38.8441 564.709 38.8438Z" fill="black"/>
<path d="M565.367 41.3438H564.07V47.3007H565.367V41.3438Z" fill="black"/>
<path d="M550.881 45.0276V41.3438H549.584V45.0276C549.584 45.7044 549.035 46.2531 548.358 46.2531C547.681 46.2531 547.133 45.7044 547.133 45.0276V41.3438H545.836V44.9704C545.837 46.3629 546.966 47.4911 548.358 47.4929C549.061 47.4947 549.732 47.1999 550.206 46.6811L550.232 46.653L550.259 46.6811C550.963 47.4414 552.061 47.6931 553.026 47.3151C553.991 46.9374 554.626 46.0068 554.627 44.9704V41.3438H553.332V45.0276C553.332 45.7044 552.783 46.2531 552.106 46.2531C551.429 46.2531 550.881 45.7044 550.881 45.0276Z" fill="black"/>
<path d="M561.753 43.8563C562.586 42.9865 563.001 41.9234 563.175 41.3608L563.18 41.3438H561.838C561.523 42.1657 560.8 43.52 559.387 43.8232V38.9434H558.129V47.3008H559.39V45.1051C559.867 45.0374 560.327 44.8812 560.748 44.6447L562.148 47.299H563.572L561.753 43.8563Z" fill="black"/>
<path d="M523.619 42.122C523.342 42.4006 523.122 42.7308 522.971 43.0936C522.811 43.481 522.731 43.8964 522.735 44.3158C522.731 44.736 522.812 45.1525 522.971 45.5413C523.121 45.9067 523.341 46.2393 523.619 46.5194C523.897 46.7959 524.227 47.014 524.59 47.1613C524.979 47.3172 525.394 47.3953 525.812 47.3913H527.547V46.2318H525.892C525.64 46.2339 525.39 46.1835 525.158 46.0834C524.941 45.988 524.746 45.8491 524.584 45.6748C524.424 45.4984 524.297 45.2936 524.211 45.0704C524.032 44.5815 524.032 44.0448 524.211 43.5559C524.297 43.3327 524.424 43.1275 524.584 42.9511C524.745 42.7786 524.941 42.6426 525.158 42.5515C525.391 42.4554 525.64 42.4071 525.892 42.4096H527.547V41.2501H525.812C525.394 41.2472 524.979 41.3264 524.59 41.4834C524.228 41.6299 523.898 41.8466 523.619 42.122Z" fill="black"/>
<path d="M498.484 34.5693V54.0718H517.987V34.5693H498.484ZM512.11 50.1622H508.756C505.553 50.1302 502.973 47.5241 502.973 44.3208C502.973 41.1176 505.553 38.5112 508.756 38.4795H512.11V50.1622Z" fill="black"/>
</svg>
